<svg width="153" height="153" viewBox="0 0 153 153" fill="none" xmlns="http://www.w3.org/2000/svg">
<g clip-path="url(#clip0_72_245)">
<path fill-rule="evenodd" clip-rule="evenodd" d="M153 76.4989C153.007 86.5472 151.034 96.4984 147.192 105.783C143.35 115.068 137.715 123.505 130.61 130.61C123.505 137.715 115.068 143.35 105.783 147.192C96.4984 151.034 86.5472 153.007 76.4989 153C73.1451 152.998 69.7949 152.781 66.469 152.35C50.7863 150.282 36.1306 143.402 24.5211 132.657C12.9116 121.913 4.91953 107.833 1.64586 92.3565C1.63363 92.3372 1.62885 92.3141 1.63241 92.2915C0.547569 87.0973 0.000547772 81.8052 0 76.4989C0.00178381 56.2107 8.06204 36.7539 22.408 22.408C36.7539 8.06204 56.2107 0.00178381 76.4989 0C78.1716 0 79.8175 0.0538156 81.4634 0.159204C89.9387 0.693625 98.2639 2.64928 106.091 5.94438C107.436 6.50272 108.746 7.09917 110.046 7.73823C122.922 14.0333 133.773 23.8144 141.366 35.9697C148.959 48.125 152.99 62.1668 153 76.4989Z" fill="url(#paint0_radial_72_245)"/>
<path fill-rule="evenodd" clip-rule="evenodd" d="M36.1013 127.218C29.6905 127.218 17.8847 117.874 12.2744 105.828C5.25371 90.8048 5.20213 74.9942 8.59251 72.0837C9.56792 71.2338 10.8819 70.7988 12.4852 70.7988C13.6622 70.8202 14.8306 71.0059 15.9563 71.3504C24.0869 73.7026 35.2985 84.9232 40.1509 96.1527C44.9023 107.154 43.4919 115.885 42.1533 121.235C40.9447 126.168 38.2001 127.204 36.1102 127.218H36.1013Z" fill="url(#paint1_linear_72_245)"/>
<path fill-rule="evenodd" clip-rule="evenodd" d="M40.8706 120.912C40.115 124 38.6014 125.877 36.1012 125.89C30.5694 125.89 18.9968 117.118 13.4785 105.261C6.43537 90.1813 6.8345 75.3416 9.46026 73.0993C10.7877 71.9468 12.9785 71.8795 15.593 72.6352C23.8066 75.012 36.1864 85.6002 38.866 96.4822C41.1487 105.732 42.2766 115.3 40.8706 120.912Z" fill="url(#paint2_linear_72_245)"/>
<path fill-rule="evenodd" clip-rule="evenodd" d="M14.483 65.7715C14.0861 65.7938 13.6894 65.7246 13.3235 65.569C12.9576 65.4135 12.6324 65.1759 12.373 64.8746C10.2854 62.4081 13.335 53.9568 14.6848 50.905C16.8487 46.0145 18.9856 43.5053 21.0373 43.4291C21.8301 43.4172 22.6004 43.6928 23.2057 44.2049H23.237L23.6362 44.5906C25.9749 46.9249 27.058 52.2302 24.9412 56.4054C23.4075 59.4303 18.6044 64.7513 15.3643 65.6258C15.0777 65.7105 14.7817 65.7595 14.483 65.7715Z" fill="url(#paint3_linear_72_245)"/>
<path fill-rule="evenodd" clip-rule="evenodd" d="M24.0848 55.9079C22.5847 58.8632 17.7861 64.1304 14.8375 64.9377C14.0885 65.1462 13.4607 65.0475 13.0324 64.5565C10.8551 61.9823 17.1448 44.3128 21.2034 44.1738C21.8133 44.1536 22.421 44.4519 22.9412 45.008H22.9547C24.9032 46.9476 26.1096 51.9143 24.0848 55.9079Z" fill="url(#paint4_linear_72_245)"/>
<path fill-rule="evenodd" clip-rule="evenodd" d="M122.655 125.245C120.081 125.245 118.17 124.236 117.3 122.404C115.609 118.843 116.477 105.838 121.641 94.348C129.301 77.2772 139.817 72.7657 144.309 72.7657C144.602 72.7643 144.895 72.7838 145.185 72.824C145.345 72.8473 145.503 72.8833 145.656 72.9316C146.82 73.2164 147.838 74.1604 148.571 75.7076C151.596 81.9861 149.856 97.5119 144.919 108.264C140.324 118.271 129.496 125.245 122.655 125.245Z" fill="url(#paint5_linear_72_245)"/>
<path fill-rule="evenodd" clip-rule="evenodd" d="M143.732 107.71C137.678 120.888 121.28 127.615 118.506 121.836C117.101 118.876 117.672 106.443 122.859 94.8993C130.649 77.5415 141.304 73.613 145.006 74.1444C145.087 74.1559 145.168 74.1739 145.246 74.1982C150.477 75.492 149.681 94.7333 143.732 107.71Z" fill="url(#paint6_linear_72_245)"/>
<path fill-rule="evenodd" clip-rule="evenodd" d="M142.632 71.5429C142.076 71.5508 141.529 71.4049 141.051 71.1214C137.891 69.2199 135.786 56.784 137.963 52.8958C138.562 51.815 139.364 51.4652 139.93 51.3621C140.182 51.3125 140.439 51.2877 140.696 51.2881C144.262 51.2881 147.854 55.4857 149.056 61.0534C149.408 62.6222 149.345 64.2558 148.873 65.7929C148.401 67.3299 147.537 68.7175 146.365 69.8186C145.199 70.9106 143.836 71.5429 142.632 71.5429Z" fill="url(#paint7_linear_72_245)"/>
<path fill-rule="evenodd" clip-rule="evenodd" d="M145.463 68.8394C144.163 70.0592 142.663 70.5368 141.734 69.9807C139.198 68.4537 137.25 56.8834 139.12 53.5401C139.385 53.0625 139.73 52.7418 140.167 52.6633C142.768 52.1453 146.524 55.6097 147.757 61.3276C148.062 62.6711 148.011 64.0708 147.608 65.3883C147.206 66.7058 146.467 67.8954 145.463 68.8394Z" fill="url(#paint8_linear_72_245)"/>
<path fill-rule="evenodd" clip-rule="evenodd" d="M81.2997 152.03C80.8333 152.03 80.349 152.03 79.8445 152.007C71.9963 151.783 65.9982 148.435 64.9308 145.473C64.7281 144.967 64.6878 144.411 64.8156 143.882C64.9434 143.352 65.2329 142.875 65.6439 142.518C68.1104 140.34 78.3085 140.23 80.3266 140.23C86.9279 140.23 94.9509 140.876 95.6662 143.957C95.8479 144.742 95.8053 145.955 94.5787 147.283C92.7624 149.278 90.2645 152.03 81.2997 152.03Z" fill="url(#paint9_linear_72_245)"/>
<path fill-rule="evenodd" clip-rule="evenodd" d="M93.6054 146.378C91.7465 148.421 89.41 150.959 79.8824 150.677C70.6261 150.403 64.2916 145.475 66.5204 143.501C69.5341 140.847 93.5515 140.701 94.3745 144.244C94.5337 144.945 94.2669 145.661 93.6054 146.378Z" fill="url(#paint10_linear_72_245)"/>
<path fill-rule="evenodd" clip-rule="evenodd" d="M118.349 77.6091C113.237 77.6091 109.304 75.1784 107.275 70.7655C102.42 60.184 102.418 39.465 105.958 31.1303C106.855 29.0226 107.914 27.7444 109.201 27.2197C110.462 26.6927 111.814 26.4199 113.181 26.417C117.701 26.417 122.388 29.4419 126.736 35.162C133.855 44.5349 138.819 59.7535 136.947 66.476C136.351 68.6443 134.481 70.9606 131.666 72.9787C127.659 75.8758 122.679 77.6091 118.349 77.6091Z" fill="url(#paint11_linear_72_245)"/>
<path fill-rule="evenodd" clip-rule="evenodd" d="M135.66 66.1237C135.129 68.0476 133.339 70.1308 130.884 71.8955C124.195 76.7389 112.652 79.2951 108.461 70.2092C103.738 59.9125 103.765 39.6509 107.162 31.6414C107.864 29.9821 108.701 28.8407 109.683 28.4438C124.126 22.4793 138.47 56.058 135.66 66.1237Z" fill="url(#paint12_linear_72_245)"/>
<path fill-rule="evenodd" clip-rule="evenodd" d="M40.8708 120.912C33.3994 123.581 21.8559 114.239 15.8308 99.0049C10.5233 85.6295 14.5437 75.0121 15.5932 72.624C23.8068 75.0009 36.1866 85.5891 38.8662 96.4711C41.1488 105.732 42.2767 115.3 40.8708 120.912Z" fill="#FFFF45"/>
<path fill-rule="evenodd" clip-rule="evenodd" d="M93.6055 146.378C77.7612 151.276 66.5205 143.508 66.5205 143.508C69.5342 140.853 93.5516 140.708 94.3746 144.25C94.5338 144.946 94.2669 145.661 93.6055 146.378Z" fill="#FFFF45"/>
<path fill-rule="evenodd" clip-rule="evenodd" d="M141.203 106.53C130.402 124.164 118.497 121.829 118.497 121.829C117.091 118.87 117.663 106.436 122.85 94.8924C130.64 77.5347 141.295 73.6061 144.997 74.1375C145.078 74.1491 145.159 74.167 145.237 74.1914C147.32 80.6268 148.993 93.8161 141.203 106.53Z" fill="#FFFF45"/>
<path fill-rule="evenodd" clip-rule="evenodd" d="M130.893 71.8956C124.204 76.739 112.661 79.2952 108.47 70.2093C103.747 59.9126 103.774 39.651 107.171 31.6415C110.156 31.2446 115.663 32.2379 122.085 41.6467C130.92 54.5781 133.877 64.5049 130.893 71.8956Z" fill="#FFFF45"/>
<path fill-rule="evenodd" clip-rule="evenodd" d="M145.463 68.8394C144.163 70.0592 142.663 70.5368 141.734 69.9807C139.198 68.4537 137.25 56.8833 139.12 53.54C141.122 54.6926 144.096 57.0963 144.892 61.4083C145.337 63.8591 145.529 66.3493 145.463 68.8394Z" fill="#FFFF45"/>
<path fill-rule="evenodd" clip-rule="evenodd" d="M24.0847 55.908C22.5846 58.8634 17.786 64.1306 14.8374 64.9378C15.0258 63.7628 17.2726 50.0443 22.9411 45.0059H22.9546C24.9032 46.9477 26.1095 51.9144 24.0847 55.908Z" fill="#FFFF45"/>
<path style="mix-blend-mode:soft-light" opacity="0.3" fill-rule="evenodd" clip-rule="evenodd" d="M116.071 94.5742C115.356 96.3278 114.424 97.985 113.298 99.5073C112.401 100.702 111.226 101.604 110.524 102.945C108.122 107.483 108.627 112.587 107.219 117.343C106.463 119.942 104.485 122.013 103.716 124.639C103.371 125.834 103.557 126.908 103.517 128.144C103.465 129.577 102.734 130.559 101.871 131.673C100.913 132.897 99.6434 133.841 98.1955 134.407C97.0407 134.871 95.794 134.685 94.5607 134.685C91.8345 134.691 89.1214 134.306 86.5041 133.543C84.0869 132.844 81.8221 131.716 79.378 131.025C77.6918 130.561 76.537 130.707 74.853 131.052C73.4202 131.344 71.8012 131.184 70.3415 131.158C67.7673 131.104 65.3389 132.564 63.0562 133.691C61.37 134.528 60.269 135.485 59.6187 137.315C58.8631 139.398 58.89 141.335 56.3808 142.158C54.9211 142.636 53.1429 142.131 51.7101 141.84C50.3961 141.562 48.9767 141.721 47.6358 141.735C45.0212 141.748 42.5794 140.963 40.272 139.743C37.5655 138.311 35.1752 136.12 33.0002 134.037C31.8185 132.916 30.3094 132.272 29.0851 131.171C27.3989 129.684 25.7418 128.346 24.152 126.738C21.7375 124.244 19.1767 121.896 16.4833 119.706C14.5863 118.206 12.9539 116.343 11.3484 114.598C10.003 113.138 9.21144 111.01 8.20912 109.315C6.21892 105.841 4.70737 102.115 3.71552 98.2359C2.60109 93.897 1.34539 89.1725 1.39248 84.6609C1.44629 80.849 0.901411 77.1626 0.901411 73.3417C0.60144 79.6676 0.846006 86.0075 1.63241 92.2915C0.547569 87.0973 0.000547772 81.8052 0 76.4989C0.00178381 56.2107 8.06204 36.7539 22.408 22.408C36.7539 8.06204 56.2107 0.00178381 76.4989 0C78.1716 0 79.8175 0.0538156 81.4634 0.159204C89.9387 0.693625 98.2639 2.64928 106.091 5.94438C108.055 8.10822 110.019 10.4156 111.439 12.8574C112.024 13.8665 112.488 14.9675 113.071 15.9765C113.589 16.8734 114.145 17.3443 113.986 18.4431C113.894 19.0933 113.443 19.9163 113.176 20.5262C112.329 22.5689 109.952 24.069 108.136 25.1969C105.6 26.789 102.642 27.4392 99.9468 28.834C98.209 29.7309 97.626 30.5314 96.4443 31.9911C95.8478 32.7333 95.0518 33.3186 94.5338 34.1146C93.0606 36.3838 92.2781 39.5948 92.3835 42.2609C92.5696 47.3981 96.5497 51.1271 97.4802 55.9951C98.3009 60.2017 97.7045 64.6617 99.0499 68.801C100.537 73.4179 104.597 77.2142 108.405 79.8937C109.974 81.0149 111.544 81.9387 112.93 83.2774C114.23 84.5264 116.069 85.2417 116.991 86.7956C118.524 89.372 117.078 92.1323 116.071 94.5742Z" fill="url(#paint13_linear_72_245)"/>
<path fill-rule="evenodd" clip-rule="evenodd" d="M110.046 7.73599C109.793 7.7629 109.542 7.78981 109.288 7.84138C108.491 7.98816 107.67 7.93343 106.9 7.68218C106.29 7.50952 105.853 7.25838 105.203 7.15299C104.274 7.00724 103.409 6.60811 102.483 6.4803C101.501 6.348 100.651 5.96232 99.7225 5.63046C98.9915 5.36586 98.6014 5.4578 97.904 5.63046C97.2066 5.80312 96.7089 5.52507 96.0855 5.25823C95.3836 4.95328 94.6796 4.9017 93.9373 4.75595C92 4.35682 90.0738 3.73346 88.1499 3.24239C86.957 2.93743 85.8538 2.93743 84.634 2.92398C83.6787 2.91053 82.8155 3.18857 81.8602 3.18857C81.2506 3.16868 80.6434 3.10196 80.044 2.98901C79.3937 2.87017 78.7299 3.00246 78.0797 2.91053C77.111 2.76478 76.593 2.61903 75.6131 2.92398C74.8821 3.16167 74.3126 3.137 73.5816 3.17512C72.7302 3.25242 71.887 3.40246 71.0612 3.62358C69.6012 3.99118 68.1023 4.1824 66.5968 4.19313C65.6999 4.19313 64.3679 3.94199 63.5046 4.24695C62.9463 4.44427 62.6682 5.04297 62.2826 5.43986C61.5404 6.21122 60.6255 6.89961 60.0021 7.7629C59.3788 8.62619 58.6747 9.51415 58.7285 10.6017C58.7801 11.5457 59.2173 12.6467 59.6254 13.5167C60.0492 14.4338 60.195 15.2702 59.2532 15.8801C58.0542 16.6996 56.739 17.3345 55.3516 17.7636C54.4546 18.0282 53.6407 18.1874 52.885 17.5394C52.6047 17.3017 52.4366 16.8376 52.089 16.6425C51.7414 16.4474 51.358 16.6425 50.9678 16.7613C50.0326 17.0717 49.0794 17.3248 48.1134 17.5192C47.5169 17.6112 46.9922 17.9296 46.4159 18.035C45.7118 18.1695 45.2073 17.6515 44.4786 17.8242C43.4561 18.0619 42.4336 18.4969 41.373 18.5395C40.6173 18.5798 39.6598 18.248 39.023 17.8668C38.653 17.656 38.5589 17.443 38.1261 17.5618C37.7109 17.7155 37.3473 17.9828 37.0767 18.3332C36.8255 18.6897 36.7336 19.1539 36.4802 19.5261C36.2156 19.9387 35.9623 20.3356 35.7246 20.7728C35.2841 21.6127 34.778 22.4164 34.211 23.1766C33.8141 23.7058 33.5383 24.4233 33.0898 24.9144C32.8656 25.179 32.3723 25.3628 32.0808 25.5647C31.2848 26.1207 30.4484 26.6253 29.6793 27.224C28.1926 28.39 26.7867 29.6771 25.2731 30.8117C24.1206 31.675 22.5016 32.1795 21.1876 32.7221C20.3647 33.054 19.5149 33.2939 18.6919 33.6392C18.4273 33.7446 17.9363 33.8635 17.7098 34.063C17.4183 34.3164 17.2613 34.7806 16.9945 35.1259C16.277 36.0004 15.5213 36.8771 14.9764 37.8862C14.6683 38.465 14.4197 39.0735 14.2342 39.7025C13.9427 40.5658 13.4763 41.3618 13.1848 42.2251C12.5883 44.0301 12.4695 45.9137 11.8058 47.7053C11.4201 48.7524 10.864 49.7077 10.3864 50.6629C9.56345 52.2819 9.44237 54.208 9.20468 55.9974C9.08014 57.0894 9.11565 58.1938 9.31007 59.2756C9.50964 60.3766 9.45582 61.518 9.44237 62.6391C9.44237 63.8343 8.67325 65.0025 7.91759 65.9039C7.22696 66.7403 6.1798 67.0587 5.40844 67.8009C4.75817 68.4378 3.9756 69.1687 3.69755 70.0702C3.57871 70.4693 3.6841 70.92 3.61907 71.3438C3.44641 72.2878 3.20649 73.1758 3.07419 74.131C2.94844 75.288 2.89527 76.4519 2.91499 77.6156C2.91499 78.212 2.87462 78.8219 2.90153 79.4094C2.92844 79.9969 3.14146 80.5126 3.17958 81.0822C3.20649 81.4813 3.12801 81.8782 3.17958 82.2773C3.2603 82.7258 3.43296 83.1922 3.53835 83.6227C3.80294 84.6856 4.00251 85.7193 4.21104 86.7821C4.39716 87.7643 4.78059 88.733 5.08779 89.6972C5.49255 91.0062 5.81163 92.3402 6.04302 93.6907C6.24034 94.6998 6.22913 95.7469 6.37488 96.7694C6.49372 97.5924 6.67983 98.4287 6.71795 99.2517C6.75832 100.498 6.45336 101.745 6.43991 103.005C6.42645 105.129 7.27629 107.252 7.76736 109.295C7.91311 109.867 8.05886 110.45 8.21582 111.022C2.32384 99.3568 -0.482571 86.3775 0.0640494 73.3206C0.61067 60.2637 4.49211 47.5643 11.3384 36.4328C18.1848 25.3014 27.7678 16.1088 39.1743 9.73111C50.5808 3.35347 63.4305 0.00333539 76.4988 0C78.1716 0 79.8175 0.0538156 81.4633 0.159204C91.3959 0.784118 101.108 3.35868 110.046 7.73599Z" fill="url(#paint14_linear_72_245)"/>
<path style="mix-blend-mode:soft-light" opacity="0.3" fill-rule="evenodd" clip-rule="evenodd" d="M103.321 134.685C104.824 133.788 106.284 132.831 107.806 131.994C109.452 131.097 111.08 130.469 112.818 129.792C114.103 129.292 114.237 129.252 115.284 130.079C116.237 130.835 117.39 130.996 118.585 131.008C120.222 131.021 122.002 131.149 122.155 133.23C122.361 136.084 118.049 138.571 116.013 139.732C114.367 140.663 112.578 141.291 110.856 142.078C109.407 142.751 107.766 143.513 106.167 143.733C104.786 143.921 103.866 143.273 102.974 142.246C101.904 141.017 101.976 139.838 101.976 138.3C101.981 136.506 101.893 135.293 103.321 134.685Z" fill="url(#paint15_linear_72_245)"/>
<path style="mix-blend-mode:soft-light" opacity="0.3" fill-rule="evenodd" clip-rule="evenodd" d="M126.119 27.7446C127.267 30.0161 128.083 33.0768 129.819 34.9671C130.738 35.9694 131.453 36.1398 132.734 36.1241C133.364 36.1241 134.528 36.3596 135.115 36.1488C135.943 35.8506 135.893 34.9335 135.862 34.1307C135.752 31.1148 133.703 28.3142 131.812 26.1436C130.581 24.7309 128.529 23.0044 126.518 23.399C125.927 24.7708 125.789 26.2955 126.123 27.7513L126.119 27.7446Z" fill="url(#paint16_linear_72_245)"/>
<path style="mix-blend-mode:screen" fill-rule="evenodd" clip-rule="evenodd" d="M31.1346 136.248C23.1801 129.589 16.6574 121.388 11.9605 112.138C8.9604 106.229 6.74854 99.9514 5.38157 93.4665C5.36953 93.4471 5.36476 93.4241 5.36811 93.4015C4.28513 88.207 3.73887 82.915 3.73795 77.6088C3.74152 57.3206 11.8039 37.8647 26.1517 23.5207C40.4996 9.17667 59.9576 1.11938 80.2458 1.12117C81.9186 1.12117 83.5622 1.17498 85.208 1.28037C90.306 1.60752 95.358 2.44739 100.288 3.78728C94.1912 1.78806 87.8661 0.569003 81.4634 0.159213C79.8265 0.053824 78.1717 8.42163e-06 76.4989 8.42163e-06C66.4516 -0.00470696 56.5019 1.97078 47.2185 5.81353C37.9351 9.65629 29.5 15.291 22.3955 22.3955C15.291 29.5 9.65629 37.9351 5.81353 47.2185C1.97078 56.5019 -0.00470696 66.4516 8.42163e-06 76.4989C0.000556194 81.8052 0.547578 87.0973 1.63242 92.2915C1.62886 92.3141 1.63364 92.3372 1.64587 92.3566C3.00785 98.8413 5.216 105.119 8.21362 111.028C13.0715 120.594 19.88 129.035 28.2002 135.808C36.5204 142.581 46.1676 147.536 56.5198 150.352C47.2327 147.32 38.6147 142.532 31.1346 136.248Z" fill="url(#paint17_radial_72_245)"/>
<path fill-rule="evenodd" clip-rule="evenodd" d="M84.0039 148.138C83.7797 148.439 83.4388 148.699 83.7393 149.02C83.9309 149.19 84.1621 149.311 84.412 149.37C84.7685 149.459 85.4031 149.405 85.6834 149.181C85.9637 148.957 85.9256 148.656 85.7484 148.39C85.3964 147.858 84.9636 147.782 84.3896 148.013L84.0039 148.138Z" fill="#FFFF45"/>
<path fill-rule="evenodd" clip-rule="evenodd" d="M33.9844 19.7498C33.1817 20.0144 32.8633 20.0907 32.0583 20.7611C31.4147 21.2948 30.7129 21.7836 30.0985 22.3689C29.2666 23.1514 29.0222 23.9788 28.7733 24.8354C28.5244 25.692 28.2979 26.5956 28.6342 27.0508C28.8114 27.2907 29.3406 27.2751 29.7554 27.1629C30.3451 26.9992 31.0089 26.5799 31.639 26.1763C32.4858 25.6072 33.2089 24.8727 33.7647 24.017C34.1317 23.4109 34.4481 22.7757 34.7109 22.1177C34.8752 21.7273 35.0116 21.3256 35.119 20.9158C35.2239 20.6549 35.242 20.3672 35.1706 20.0952C35.0675 19.7319 34.8567 19.7072 33.9844 19.7498Z" fill="#FFFF45"/>
<path fill-rule="evenodd" clip-rule="evenodd" d="M43.0525 18.3574C42.7251 18.6287 42.0121 19.1377 42.5771 19.5346C42.7296 19.64 42.8642 19.584 43.0256 19.6311C43.1534 19.6669 43.1826 19.7656 43.3306 19.7095C43.7902 19.5346 43.6064 18.2319 43.0862 18.492L43.0525 18.3574Z" fill="#FFFF45"/>
<path fill-rule="evenodd" clip-rule="evenodd" d="M45.4158 23.0957C45.6116 22.982 45.8329 22.9195 46.0593 22.9141C46.1086 23.1966 46.3688 23.7504 45.9651 23.9702C45.6266 24.1541 45.7275 23.5486 45.5683 23.4096L45.4158 23.0957Z" fill="#FFFF45"/>
<path fill-rule="evenodd" clip-rule="evenodd" d="M50.044 23.2326C50.4745 23.403 50.9028 23.5824 51.3288 23.7707C51.4656 23.6474 51.6741 23.6721 51.8356 23.5645C52.0566 23.3917 52.2219 23.1577 52.311 22.8918C52.432 22.524 52.2437 22.2191 52.0867 21.9455C51.9905 21.7287 51.8578 21.5299 51.6943 21.358C51.4948 21.21 51.1046 21.2683 50.8961 21.358C50.6432 21.5137 50.4311 21.7274 50.2772 21.9814C50.0853 22.2349 49.9625 22.5339 49.9207 22.8492C49.9332 23.003 49.98 23.1521 50.0576 23.2856C50.1352 23.419 50.2416 23.5335 50.3691 23.6205L50.044 23.2326Z" fill="#FFFF45"/>
<path fill-rule="evenodd" clip-rule="evenodd" d="M53.9345 111.726C54.3673 111.896 54.7956 112.074 55.2216 112.262C55.3584 112.141 55.5669 112.163 55.7284 112.056C55.9503 111.884 56.1159 111.65 56.2037 111.383C56.3248 111.017 56.1365 110.71 55.9795 110.439C55.8839 110.221 55.7511 110.022 55.5871 109.849C55.3875 109.701 54.9974 109.76 54.7888 109.849C54.5354 110.005 54.3231 110.22 54.17 110.475C53.9763 110.731 53.854 111.035 53.8157 111.354C53.8281 111.507 53.8748 111.656 53.9524 111.789C54.0301 111.922 54.1366 112.036 54.2641 112.123L53.9345 111.726Z" fill="#FFFF45"/>
<path fill-rule="evenodd" clip-rule="evenodd" d="M37.6933 27.3829C37.511 27.5114 37.3581 27.6773 37.2449 27.8695C37.422 28.0937 37.5072 28.3 37.8099 28.3875C37.8674 28.4109 37.9303 28.418 37.9916 28.4082C38.0529 28.3983 38.1103 28.3717 38.1575 28.3314C38.2831 28.2081 38.2158 28.0713 38.2494 27.9502C38.3324 27.6565 38.4131 27.5802 38.2494 27.3111C38.1485 27.1497 38.079 27.0869 37.9041 27.0869C37.7808 27.0869 37.5117 27.1205 37.4556 27.2573L37.6933 27.3829Z" fill="#FFFF45"/>
<path fill-rule="evenodd" clip-rule="evenodd" d="M38.6756 34.2354C38.6442 34.3116 38.3101 35.1569 38.7428 34.908C38.7851 34.8756 38.8194 34.8338 38.843 34.786C38.8666 34.7382 38.8789 34.6856 38.8789 34.6322C38.8789 34.5789 38.8666 34.5263 38.843 34.4785C38.8194 34.4306 38.7851 34.3889 38.7428 34.3564L38.7653 34.2735L38.6756 34.2354Z" fill="#FFFF45"/>
<path fill-rule="evenodd" clip-rule="evenodd" d="M32.2893 45.9042C32.0759 46.1769 31.9231 46.4918 31.8408 46.8281C31.9909 46.9439 32.176 47.0048 32.3655 47.0007C32.6189 46.9895 32.6324 46.9088 32.6391 46.6666C32.6779 46.49 32.6915 46.3089 32.6794 46.1285C32.6301 45.9356 32.4373 45.7406 32.2153 45.8616L32.2893 45.9042Z" fill="#FFFF45"/>
<path fill-rule="evenodd" clip-rule="evenodd" d="M42.0703 28.2108C42.2338 28.3595 42.3434 28.5582 42.382 28.7758C42.1578 28.8319 42.1241 28.6054 42.0905 28.426C42.0367 28.1413 42.169 28.2287 42.3035 28L42.3798 28.0157L42.0703 28.2108Z" fill="#FFFF45"/>
<path fill-rule="evenodd" clip-rule="evenodd" d="M39.8056 19.1742C39.6237 19.3014 39.4709 19.4657 39.3572 19.6563C39.4671 19.7931 39.4155 20.0375 39.6689 20.0173C39.8482 20.0173 39.994 19.8132 40.0814 19.6653C40.1642 19.5134 40.2059 19.3426 40.2025 19.1697C40.2025 19.0733 40.2025 18.6697 40.0344 18.9455L39.8056 19.1742Z" fill="#FFFF45"/>
<path fill-rule="evenodd" clip-rule="evenodd" d="M69.0991 14.4879C69.1389 14.2525 69.2051 14.0223 69.2964 13.8018C69.3278 13.7479 69.4063 13.6986 69.4444 13.6448C69.5723 13.4609 69.5341 13.4206 69.7427 13.4206C69.8458 13.4082 69.9504 13.4167 70.0502 13.4456C70.1499 13.4745 70.2429 13.5232 70.3234 13.5887C70.9692 14.1022 69.3346 14.4991 69.2718 14.0013L69.0991 14.4879Z" fill="#FFFF45"/>
<path fill-rule="evenodd" clip-rule="evenodd" d="M74.5884 16.5169C74.5054 16.8891 74.2655 17.3914 74.6108 17.638C74.9068 17.8623 75.5279 17.517 75.7634 17.3039C76.1804 16.9227 76.6894 16.2007 76.2903 15.6693C76.1243 15.5013 75.9256 15.3692 75.7066 15.2808C75.4876 15.1925 75.2528 15.15 75.0167 15.1558C74.2363 15.2276 74.0099 16.1581 73.8955 16.9026L74.5884 16.5169Z" fill="#FFFF45"/>
<path fill-rule="evenodd" clip-rule="evenodd" d="M76.99 8.96883C76.9048 8.33201 76.7905 7.70192 77.3578 7.36557C77.665 7.18394 78.2323 7.12116 78.5238 7.33642C78.7376 7.52797 78.9159 7.75568 79.0507 8.00912C79.2458 8.33201 79.1942 8.33425 79.0933 8.62799C78.8691 9.30069 78.7009 9.74915 78.026 9.74915C77.129 9.74915 77.0012 9.06076 76.99 8.19971V8.96883Z" fill="#FFFF45"/>
<path fill-rule="evenodd" clip-rule="evenodd" d="M85.2192 20.1812C85.7021 20.0524 86.1379 19.7878 86.4749 19.4188C86.1251 19.1945 85.3538 18.7461 85.2192 19.4188V20.1812Z" fill="#FFFF45"/>
<path fill-rule="evenodd" clip-rule="evenodd" d="M56.928 121.926C57.4102 121.794 57.8454 121.529 58.1837 121.161C57.8316 120.937 57.0625 120.488 56.928 121.161V121.926Z" fill="#FFC445"/>
<path fill-rule="evenodd" clip-rule="evenodd" d="M109.425 132.936C109.907 132.805 110.343 132.541 110.681 132.173C110.331 131.949 109.56 131.501 109.425 132.162V132.936Z" fill="#FFC445"/>
<path fill-rule="evenodd" clip-rule="evenodd" d="M91.565 30.0469C92.0516 29.4505 92.7512 28.3629 93.6302 28.9594C94.1414 29.3069 94.2872 30.2241 93.7983 30.5896C93.3499 30.9281 92.9306 31.0223 92.4193 31.1636C92.0292 31.2712 91.4484 31.0134 91.565 30.4348V30.0469Z" fill="#FFFF45"/>
<path fill-rule="evenodd" clip-rule="evenodd" d="M57.5691 44.2295C58.0557 43.6331 58.7553 42.5455 59.6366 43.142C60.1456 43.4896 60.2936 44.4067 59.8025 44.7699C59.3871 45.0544 58.9177 45.2505 58.4235 45.3462C58.0333 45.4538 57.4525 45.1937 57.5691 44.6152V44.2295Z" fill="#FFC445"/>
<path fill-rule="evenodd" clip-rule="evenodd" d="M113.984 19.1026C114.468 18.5061 115.168 17.4186 116.049 18.0151C116.56 18.3626 116.706 19.2797 116.217 19.6452C115.8 19.9281 115.33 20.1234 114.836 20.2192C114.446 20.3269 113.865 20.069 113.984 19.4905V19.1026Z" fill="#FFC445"/>
<path fill-rule="evenodd" clip-rule="evenodd" d="M82.3626 71.2383C82.8492 70.6419 83.5488 69.5543 84.4278 70.1508C84.939 70.4961 85.087 71.4132 84.5959 71.7787C84.1807 72.0635 83.7113 72.2597 83.2169 72.355C82.8268 72.4626 82.246 72.2025 82.3626 71.624V71.2383Z" fill="#FFC445"/>
<path fill-rule="evenodd" clip-rule="evenodd" d="M54.7125 22.9275C54.0914 23.3222 53.0465 23.811 52.9411 24.6631C52.8783 25.1766 53.116 25.4793 53.5801 25.7013C53.7982 25.7983 54.0343 25.8485 54.273 25.8485C54.5117 25.8485 54.7478 25.7983 54.9659 25.7013C55.5332 25.4143 56.1902 24.9411 56.4458 24.3357C56.5341 24.1519 56.5758 23.9492 56.5672 23.7454C56.5586 23.5417 56.5 23.3432 56.3965 23.1675C56.2821 22.9039 56.0757 22.6911 55.8157 22.5688C55.0219 22.293 54.5466 23.071 53.9591 23.4231L54.7125 22.9275Z" fill="#FFFF45"/>
<path fill-rule="evenodd" clip-rule="evenodd" d="M56.7305 20.665C57.06 20.7776 57.3555 20.972 57.5893 21.2301C57.2507 21.3444 56.8897 21.6135 56.5421 21.4879C56.0937 21.3287 56.0107 20.9027 56.1116 20.4744C56.1677 20.2502 56.5892 19.8309 56.8292 19.934C56.9503 19.9856 56.9727 20.1582 57.013 20.2569C57.096 20.4811 57.1027 20.4318 56.9816 20.665H56.7305Z" fill="#FFFF45"/>
<path fill-rule="evenodd" clip-rule="evenodd" d="M22.6473 34.8699C21.9492 35.4483 21.3892 36.1753 21.0081 36.9979C20.8287 37.4239 21.1471 37.4463 21.5351 37.3679C22.284 37.2221 23.0397 37.0158 23.7774 36.8252C24.2258 36.7131 24.8447 36.4821 25.1497 36.1099C25.3817 35.7793 25.4809 35.3735 25.4277 34.9731C25.356 34.4685 24.9994 34.2735 24.5308 34.1479C23.4904 33.8586 22.1495 34.5448 21.7638 35.5045L22.6473 34.8699Z" fill="#FFFF45"/>
<path fill-rule="evenodd" clip-rule="evenodd" d="M23.1586 38.3906C23.6775 38.401 24.1867 38.5331 24.6452 38.7763C24.5129 38.9333 24.5555 39.1485 24.486 39.3324C24.3578 39.6222 24.1463 39.8673 23.8784 40.0365C23.6482 40.1719 23.3924 40.258 23.1272 40.2892C22.862 40.3205 22.5932 40.2963 22.3379 40.2181C20.9611 39.6979 23.0711 38.0655 23.5353 38.6485L23.1586 38.3906Z" fill="#FFFF45"/>
<path fill-rule="evenodd" clip-rule="evenodd" d="M66.9063 7.59015C67.4197 7.34574 67.8839 7.02957 68.4378 6.93539C69.0571 6.80602 69.6866 6.73099 70.3191 6.71116C70.6442 6.71116 71.3774 6.68426 71.1644 7.21793C70.9402 7.79644 69.689 8.33908 69.1957 8.57901C68.3458 8.97814 67.5498 9.37728 66.5991 9.47594C66.1192 9.52527 65.3164 9.56115 65.0451 9.08129C64.8209 8.67767 64.924 8.34581 65.1483 7.97135C65.345 7.62574 65.6656 7.36769 66.0452 7.24932C66.2425 7.17084 67.3435 6.87485 67.4018 7.22017L66.9063 7.59015Z" fill="#FFFF45"/>
<path fill-rule="evenodd" clip-rule="evenodd" d="M58.3584 7.84766C58.1342 8.01135 56.3942 8.96881 57.2216 9.39486C57.67 9.61909 58.5401 9.55406 58.9908 9.36122C59.3944 9.1908 59.8002 8.92621 59.5469 8.46429C59.0379 7.53149 57.753 8.06965 57.1005 8.47775L58.3584 7.84766Z" fill="#FFFF45"/>
<path fill-rule="evenodd" clip-rule="evenodd" d="M34.3479 71.2022C34.4757 71.9152 34.6237 72.6978 35.2448 73.1709C35.8659 73.6441 36.6171 73.4624 37.2517 73.088C37.7203 72.8122 38.1621 72.5162 38.6218 72.2359C38.8886 72.0699 39.124 72.0296 39.1352 71.6461C39.1465 71.2627 38.7698 70.6864 38.5343 70.3748C38.1889 69.9489 37.7458 69.6128 37.2427 69.3949C36.283 69.0361 34.451 69.3949 34.4735 70.6977L34.3479 71.2022Z" fill="#FFD32F"/>
<path fill-rule="evenodd" clip-rule="evenodd" d="M89.1567 71.9646C89.2846 72.6799 89.4303 73.4624 90.0537 73.9356C90.677 74.4087 91.426 74.2271 92.0605 73.8526C92.5292 73.5768 92.9709 73.2808 93.4306 72.9983C93.6974 72.8346 93.9306 72.7942 93.9441 72.4108C93.9575 72.0274 93.5786 71.4511 93.3431 71.1394C92.9978 70.7136 92.5547 70.3774 92.0516 70.1595C91.0919 69.8007 89.2599 70.1595 89.2823 71.4623L89.1567 71.9646Z" fill="#FFBA00"/>
<path fill-rule="evenodd" clip-rule="evenodd" d="M10.9872 99.6035C10.9872 99.6035 10.3504 102.355 12.2788 105.837C14.2072 109.319 15.6064 109.129 15.6064 109.129C15.6064 109.129 13.9471 102.662 10.9872 99.6035Z" fill="#FFFF59"/>
<path fill-rule="evenodd" clip-rule="evenodd" d="M135.871 61.8877C135.871 61.8877 133.628 68.3635 133.297 69.2716C133.297 69.2627 136.833 68.2648 135.871 61.8877Z" fill="#FFFF59"/>
<path fill-rule="evenodd" clip-rule="evenodd" d="M147.905 63.9062C147.905 63.9062 146.351 65.0902 145.472 68.0725C145.472 68.068 147.385 68.9649 147.905 63.9062Z" fill="#FFFF59"/>
<path fill-rule="evenodd" clip-rule="evenodd" d="M123.247 123.89C123.247 123.89 130.494 119.182 134.667 118.856C134.667 118.856 129.929 124.673 123.247 123.89Z" fill="#FFFF59"/>
</g>
<defs>
<radialGradient id="paint0_radial_72_245" cx="0" cy="0" r="1" gradientUnits="userSpaceOnUse" gradientTransform="translate(29.121 40.7227) scale(122.886)">
<stop offset="0.01" stop-color="#FFB80B"/>
<stop offset="0.26" stop-color="#FFB60C"/>
<stop offset="0.38" stop-color="#FEAE10"/>
<stop offset="0.48" stop-color="#FCA117"/>
<stop offset="0.57" stop-color="#FA8E21"/>
<stop offset="0.64" stop-color="#F7762E"/>
<stop offset="0.66" stop-color="#F66D33"/>
<stop offset="0.72" stop-color="#EF6836"/>
<stop offset="0.81" stop-color="#DC593D"/>
<stop offset="0.91" stop-color="#BD4049"/>
<stop offset="0.98" stop-color="#A02A54"/>
</radialGradient>
<linearGradient id="paint1_linear_72_245" x1="6.40626" y1="99.0072" x2="43.4471" y2="99.0072" gradientUnits="userSpaceOnUse">
<stop offset="0.01" stop-color="#FFA90B"/>
<stop offset="0.37" stop-color="#FFA60E"/>
<stop offset="0.64" stop-color="#FF9D16"/>
<stop offset="0.87" stop-color="#FF8D25"/>
<stop offset="1" stop-color="#FF8031"/>
</linearGradient>
<linearGradient id="paint2_linear_72_245" x1="7.71125" y1="99.007" x2="41.4895" y2="99.007" gradientUnits="userSpaceOnUse">
<stop offset="0.01" stop-color="#FFE00B"/>
<stop offset="0.31" stop-color="#FFDD0D"/>
<stop offset="0.52" stop-color="#FFD412"/>
<stop offset="0.71" stop-color="#FFC41B"/>
<stop offset="0.89" stop-color="#FFAD27"/>
<stop offset="1" stop-color="#FF9B31"/>
</linearGradient>
<linearGradient id="paint3_linear_72_245" x1="11.3486" y1="54.8242" x2="26.1031" y2="54.3816" gradientUnits="userSpaceOnUse">
<stop offset="0.01" stop-color="#FFA90B"/>
<stop offset="0.37" stop-color="#FFA60E"/>
<stop offset="0.64" stop-color="#FF9D16"/>
<stop offset="0.87" stop-color="#FF8D25"/>
<stop offset="1" stop-color="#FF8031"/>
</linearGradient>
<linearGradient id="paint4_linear_72_245" x1="12.2569" y1="54.7973" x2="25.1637" y2="54.4101" gradientUnits="userSpaceOnUse">
<stop offset="0.01" stop-color="#FFE00B"/>
<stop offset="0.31" stop-color="#FFDD0D"/>
<stop offset="0.52" stop-color="#FFD412"/>
<stop offset="0.71" stop-color="#FFC41B"/>
<stop offset="0.89" stop-color="#FFAD27"/>
<stop offset="1" stop-color="#FF9B31"/>
</linearGradient>
<linearGradient id="paint5_linear_72_245" x1="133.297" y1="125.245" x2="133.297" y2="72.7657" gradientUnits="userSpaceOnUse">
<stop offset="0.01" stop-color="#FF8E0B"/>
<stop offset="0.35" stop-color="#FD8B0D"/>
<stop offset="0.59" stop-color="#F98215"/>
<stop offset="0.81" stop-color="#F17221"/>
<stop offset="1" stop-color="#E65D31"/>
</linearGradient>
<linearGradient id="paint6_linear_72_245" x1="117.838" y1="99.0049" x2="148.724" y2="99.0049" gradientUnits="userSpaceOnUse">
<stop offset="0.01" stop-color="#FFE00B"/>
<stop offset="0.31" stop-color="#FFDD0D"/>
<stop offset="0.52" stop-color="#FFD412"/>
<stop offset="0.71" stop-color="#FFC41B"/>
<stop offset="0.89" stop-color="#FFAD27"/>
<stop offset="1" stop-color="#FF9B31"/>
</linearGradient>
<linearGradient id="paint7_linear_72_245" x1="143.174" y1="71.5429" x2="143.174" y2="51.2881" gradientUnits="userSpaceOnUse">
<stop offset="0.01" stop-color="#FFA90B"/>
<stop offset="0.37" stop-color="#FFA60E"/>
<stop offset="0.64" stop-color="#FF9D16"/>
<stop offset="0.87" stop-color="#FF8D25"/>
<stop offset="1" stop-color="#FF8031"/>
</linearGradient>
<linearGradient id="paint8_linear_72_245" x1="143.163" y1="70.2162" x2="143.163" y2="52.6162" gradientUnits="userSpaceOnUse">
<stop offset="0.01" stop-color="#FFE00B"/>
<stop offset="0.31" stop-color="#FFDD0D"/>
<stop offset="0.52" stop-color="#FFD412"/>
<stop offset="0.71" stop-color="#FFC41B"/>
<stop offset="0.89" stop-color="#FFAD27"/>
<stop offset="1" stop-color="#FF9B31"/>
</linearGradient>
<linearGradient id="paint9_linear_72_245" x1="80.2481" y1="152.027" x2="80.2481" y2="140.228" gradientUnits="userSpaceOnUse">
<stop offset="0.01" stop-color="#FFA90B"/>
<stop offset="0.37" stop-color="#FFA60E"/>
<stop offset="0.64" stop-color="#FF9D16"/>
<stop offset="0.87" stop-color="#FF8D25"/>
<stop offset="1" stop-color="#FF8031"/>
</linearGradient>
<linearGradient id="paint10_linear_72_245" x1="80.2456" y1="150.699" x2="80.2456" y2="141.555" gradientUnits="userSpaceOnUse">
<stop offset="0.01" stop-color="#FFE00B"/>
<stop offset="0.31" stop-color="#FFDD0D"/>
<stop offset="0.52" stop-color="#FFD412"/>
<stop offset="0.71" stop-color="#FFC41B"/>
<stop offset="0.89" stop-color="#FFAD27"/>
<stop offset="1" stop-color="#FF9B31"/>
</linearGradient>
<linearGradient id="paint11_linear_72_245" x1="117.237" y1="77.5956" x2="123.854" y2="27.7444" gradientUnits="userSpaceOnUse">
<stop offset="0.01" stop-color="#FFA90B"/>
<stop offset="0.37" stop-color="#FFA60E"/>
<stop offset="0.64" stop-color="#FF9D16"/>
<stop offset="0.87" stop-color="#FF8D25"/>
<stop offset="1" stop-color="#FF8031"/>
</linearGradient>
<linearGradient id="paint12_linear_72_245" x1="117.408" y1="76.2814" x2="123.677" y2="29.0582" gradientUnits="userSpaceOnUse">
<stop offset="0.01" stop-color="#FFE00B"/>
<stop offset="0.31" stop-color="#FFDD0D"/>
<stop offset="0.52" stop-color="#FFD412"/>
<stop offset="0.71" stop-color="#FFC41B"/>
<stop offset="0.89" stop-color="#FFAD27"/>
<stop offset="1" stop-color="#FF9B31"/>
</linearGradient>
<linearGradient id="paint13_linear_72_245" x1="0" y1="71.1779" x2="117.659" y2="71.1779" gradientUnits="userSpaceOnUse">
<stop offset="0.01" stop-color="#FFE00B"/>
<stop offset="0.31" stop-color="#FFDD0D"/>
<stop offset="0.52" stop-color="#FFD412"/>
<stop offset="0.71" stop-color="#FFC41B"/>
<stop offset="0.89" stop-color="#FFAD27"/>
<stop offset="1" stop-color="#FF9B31"/>
</linearGradient>
<linearGradient id="paint14_linear_72_245" x1="-2.64864e-05" y1="55.513" x2="110.046" y2="55.513" gradientUnits="userSpaceOnUse">
<stop offset="0.01" stop-color="#FFE00B"/>
<stop offset="0.31" stop-color="#FFDD0D"/>
<stop offset="0.52" stop-color="#FFD412"/>
<stop offset="0.71" stop-color="#FFC41B"/>
<stop offset="0.89" stop-color="#FFAD27"/>
<stop offset="1" stop-color="#FF9B31"/>
</linearGradient>
<linearGradient id="paint15_linear_72_245" x1="101.981" y1="136.593" x2="122.159" y2="136.593" gradientUnits="userSpaceOnUse">
<stop offset="0.01" stop-color="#FFE00B"/>
<stop offset="0.31" stop-color="#FFDD0D"/>
<stop offset="0.52" stop-color="#FFD412"/>
<stop offset="0.71" stop-color="#FFC41B"/>
<stop offset="0.89" stop-color="#FFAD27"/>
<stop offset="1" stop-color="#FF9B31"/>
</linearGradient>
<linearGradient id="paint16_linear_72_245" x1="125.94" y1="29.7874" x2="135.871" y2="29.7874" gradientUnits="userSpaceOnUse">
<stop offset="0.01" stop-color="#FFE00B"/>
<stop offset="0.31" stop-color="#FFDD0D"/>
<stop offset="0.52" stop-color="#FFD412"/>
<stop offset="0.71" stop-color="#FFC41B"/>
<stop offset="0.89" stop-color="#FFAD27"/>
<stop offset="1" stop-color="#FF9B31"/>
</linearGradient>
<radialGradient id="paint17_radial_72_245" cx="0" cy="0" r="1" gradientUnits="userSpaceOnUse" gradientTransform="translate(20.5957 24.43) scale(100.691 100.691)">
<stop stop-color="#FFFFD9"/>
<stop offset="1"/>
</radialGradient>
<clipPath id="clip0_72_245">
<rect width="153" height="153" fill="white"/>
</clipPath>
</defs>
</svg>
