<svg width="214" height="200" viewBox="0 0 214 200" fill="none" xmlns="http://www.w3.org/2000/svg">
<path fill-rule="evenodd" clip-rule="evenodd" d="M182.665 45.0839C182.665 45.0839 154.647 14.2976 117.334 2.48926C117.334 2.48926 50.4249 14.1349 34.5499 41.0271C18.6749 67.9192 9.6566 115.66 34.5499 144.98C59.4432 174.3 87.272 183.725 121.62 177.953C155.968 172.18 164.784 159.817 164.784 159.817C164.784 159.817 166.645 143.642 181.317 140.741C181.317 140.748 201.692 81.8299 182.665 45.0839Z" fill="url(#paint0_radial_76_580)"/>
<path fill-rule="evenodd" clip-rule="evenodd" d="M184.383 91.8737C184.394 102.224 182.363 112.475 178.406 122.039C174.449 131.603 168.644 140.293 161.324 147.61C154.003 154.927 145.311 160.729 135.745 164.681C126.179 168.634 115.928 170.661 105.577 170.645C104.192 170.645 102.772 170.628 101.387 170.539H101.368C99.3095 170.431 97.2688 170.236 95.2453 169.987C83.0666 168.332 71.4387 163.871 61.278 156.956C51.1174 150.041 42.7017 140.86 36.6942 130.138C36.2136 129.27 35.7527 128.383 35.2746 127.513C35.2775 127.482 35.2715 127.452 35.2573 127.424C34.7644 126.483 34.3158 125.524 33.8894 124.565H33.8722C32.4879 121.542 31.308 118.43 30.3403 115.249C29.6051 112.933 28.9889 110.581 28.4942 108.202C28.4807 108.181 28.4746 108.156 28.477 108.131C28.1393 106.445 27.8362 104.759 27.6069 103.036C27.0718 99.3387 26.8049 95.6073 26.8084 91.8712C26.8084 89.69 26.8799 87.5063 27.0746 85.3768C27.1806 84.0089 27.3408 82.678 27.5182 81.3298C28.5129 73.721 30.6361 66.3029 33.8179 59.3201C35.3469 55.9596 37.1085 52.7098 39.0899 49.5945C46.2082 38.4076 56.0321 29.196 67.6532 22.8112C79.2743 16.4263 92.3176 13.0745 105.577 13.0654C106.413 13.0654 107.246 13.0827 108.062 13.0999C108.949 13.1344 109.819 13.1714 110.706 13.2232C111.594 13.2749 112.483 13.3489 113.351 13.4549C116.914 13.8 120.449 14.393 123.929 15.2294C126.414 15.8333 128.859 16.5258 131.259 17.3589C132.893 17.911 134.49 18.5124 136.07 19.1877C137.241 19.6806 138.394 20.2007 139.548 20.7503C139.745 20.839 139.94 20.9278 140.152 21.0338C141.732 21.7978 143.277 22.6309 144.785 23.4984C150.604 26.8363 155.972 30.9039 160.759 35.6025C161.612 36.438 162.445 37.2883 163.28 38.1756C163.83 38.7795 164.38 39.3833 164.912 40.0044C165.817 41.0347 166.704 42.1167 167.574 43.2085C178.481 57.0841 184.402 74.2266 184.383 91.8762V91.8737Z" fill="url(#paint1_radial_76_580)"/>
<path fill-rule="evenodd" clip-rule="evenodd" d="M176.294 66.8322C168.407 54.0158 144.453 51.0804 136.746 58.3315C129.869 64.8013 136.13 84.3438 143.265 96.7584C143.265 96.7584 121.62 64.8432 135.905 52.0293C150.191 39.2154 179.404 55.6006 185.386 65.6836C191.368 75.7667 189.28 94.937 185.386 101.739C181.492 108.542 173.556 107.78 173.556 107.78C173.556 107.78 192.403 93.0244 176.294 66.8322Z" fill="url(#paint2_radial_76_580)"/>
<path style="mix-blend-mode:multiply" opacity="0.71" fill-rule="evenodd" clip-rule="evenodd" d="M30.6138 67.5785C30.6138 67.5785 42.5453 53.1009 51.3467 55.1171C60.1481 57.1332 55.7659 72.8012 55.7659 72.8012L64.6166 47.3237C64.6166 47.3237 48.4211 40.7356 43.0752 43.7746C43.0752 43.782 34.5425 55.5903 30.6138 67.5785Z" fill="url(#paint3_linear_76_580)"/>
<path fill-rule="evenodd" clip-rule="evenodd" d="M67.4042 153.855C67.4042 153.855 65.186 157.029 67.4042 161.776C69.6224 166.523 79.4023 173.885 101.348 175.446C125.132 177.134 137.524 162.607 137.692 159.906C137.86 157.204 130.34 154.796 130.34 154.796C130.34 154.796 138.772 155.09 140.753 159.94C142.735 164.791 126.663 181.649 99.8764 179.288C73.0902 176.927 59.8549 161.01 60.0126 156.756C60.1704 152.502 67.4042 153.855 67.4042 153.855Z" fill="url(#paint4_linear_76_580)"/>
<path fill-rule="evenodd" clip-rule="evenodd" d="M51.3468 45.2025C51.3468 45.2025 47.566 42.6589 43.0754 43.7828C37.0443 45.2937 29.5196 58.5956 28.7358 68.9226C28.0556 77.8521 31.2843 85.0194 33.1722 86.0694C35.0602 87.1194 40.729 86.0694 40.729 86.0694C40.729 86.0694 35.5063 89.8527 28.0383 87.2253C20.5703 84.598 24.1638 62.5415 28.0383 53.087C31.9128 43.6325 43.9922 37.5398 47.0386 38.1707C50.0849 38.8017 51.3468 45.2025 51.3468 45.2025Z" fill="url(#paint5_linear_76_580)"/>
<path fill-rule="evenodd" clip-rule="evenodd" d="M128.657 112.532C126.766 110.011 115.949 107.376 115.949 107.376L110.43 113.479C106.388 114.634 103.554 127.345 107.019 130.179C110.484 133.014 124.245 132.397 126.347 127.029C128.45 121.661 130.549 115.053 128.657 112.532ZM112.062 126.933C109.015 123.887 110.553 115.768 114.056 115.379C118.783 114.854 121.571 116.118 122.566 120.422C123.562 124.725 115.101 129.97 112.062 126.933Z" fill="url(#paint6_linear_76_580)"/>
<path fill-rule="evenodd" clip-rule="evenodd" d="M45.4143 146.65C47.2505 147.688 53.7696 146.276 53.7696 146.276L54.573 140.915C56.2835 139.052 53.4565 130.317 50.6936 129.536C47.9307 128.754 40.9877 133.023 41.7074 136.957C42.4271 140.89 43.5781 145.598 45.4143 146.65ZM49.1729 132.989C51.7904 134.029 53.7375 139.528 52.0467 140.76C49.7669 142.421 47.8913 142.421 45.9146 140.02C43.9379 137.62 46.5579 131.936 49.1729 132.976V132.989Z" fill="url(#paint7_linear_76_580)"/>
<path style="mix-blend-mode:multiply" opacity="0.71" fill-rule="evenodd" clip-rule="evenodd" d="M180.787 76.072C180.787 76.072 167.312 63.5687 151.844 64.0517C136.376 64.5348 134.325 81.583 140.287 91.0302C146.249 100.477 122.645 83.6731 122.645 83.6731V47.3239C122.645 47.3239 151.255 44.5093 166.457 51.3783C181.659 58.2474 180.787 76.072 180.787 76.072Z" fill="url(#paint8_linear_76_580)"/>
<path style="mix-blend-mode:multiply" opacity="0.71" fill-rule="evenodd" clip-rule="evenodd" d="M133.904 22.2096C131.74 25.2461 134.811 36.071 134.811 36.071L110.41 24.487L113.351 13.46C116.914 13.8052 120.449 14.3981 123.929 15.2345C126.414 15.8384 128.859 16.531 131.259 17.364C132.893 17.9161 134.49 18.5175 136.07 19.1928C137.241 19.6858 138.394 20.2058 139.548 20.7554C139.745 20.8442 139.94 20.9329 140.152 21.0389C141.732 21.8029 143.277 22.636 144.785 23.5035C140.916 22.0149 135.289 20.2748 133.904 22.2096Z" fill="url(#paint9_linear_76_580)"/>
<path style="mix-blend-mode:multiply" opacity="0.71" fill-rule="evenodd" clip-rule="evenodd" d="M27.7769 104.236C27.7769 104.236 30.6187 100.786 35.6639 102.23C40.7091 103.674 41.8256 108.714 41.8256 108.714L45.9244 94.0619L29.1103 90.3994L26.0393 93.3102L27.7769 104.236Z" fill="url(#paint10_linear_76_580)"/>
<path style="mix-blend-mode:multiply" opacity="0.71" fill-rule="evenodd" clip-rule="evenodd" d="M109.151 123.39C109.151 123.39 110.29 119.624 117.334 119.609C124.378 119.594 123.343 124.265 123.343 124.265L128.134 115.256L114.157 106.894L101.34 112.345L109.151 123.39Z" fill="url(#paint11_linear_76_580)"/>
<path style="mix-blend-mode:multiply" opacity="0.71" fill-rule="evenodd" clip-rule="evenodd" d="M66.088 161.439C66.088 161.439 70.628 158.412 98.8683 156.731C127.109 155.051 138.365 164.569 138.365 164.569L141.586 151.176L85.2559 139.257L58.8394 147.018L57.2866 154.102L66.088 161.439Z" fill="url(#paint12_linear_76_580)"/>
<path fill-rule="evenodd" clip-rule="evenodd" d="M34.3996 95.3854C34.3996 95.3854 29.8547 91.8634 24.9821 96.0459C20.3386 100.029 20.3583 111.278 23.6832 117.474C26.5447 122.807 34.9172 119.872 34.9172 119.872C34.9172 119.872 28.2379 125.878 22.9857 122.201C17.7334 118.524 16.6835 98.1459 21.3048 92.3785C25.926 86.6111 34.3996 95.3854 34.3996 95.3854Z" fill="url(#paint13_linear_76_580)"/>
<path fill-rule="evenodd" clip-rule="evenodd" d="M193.093 70.1468C191.449 63.469 189.032 57.0057 185.891 50.8878C184.893 48.916 183.811 46.9788 182.665 45.0834C175.796 48.4255 165.218 50.0128 150.624 42.6532C131.032 32.7748 121.435 13.57 117.351 2.4789C115.406 2.23243 113.444 2.03032 111.465 1.89723C110.45 1.83068 109.434 1.78139 108.439 1.74688C107.507 1.72963 106.558 1.71484 105.594 1.71484C88.2744 1.73094 71.3246 6.72791 56.7658 16.1099C42.2071 25.492 30.6537 38.8631 23.4834 54.6291C19.8444 62.6186 17.4123 71.1042 16.2668 79.8083C16.0672 81.3562 15.9021 82.8867 15.7739 84.4493C15.5422 86.8771 15.4412 89.3787 15.4412 91.868C15.4436 96.1474 15.7492 100.421 16.3556 104.657C16.6217 106.629 16.9717 108.549 17.371 110.479C17.3697 110.507 17.3757 110.535 17.3883 110.56C17.9538 113.284 18.6588 115.976 19.5005 118.627C20.6103 122.259 21.9548 125.815 23.5253 129.272H23.5574C24.0503 130.386 24.5432 131.468 25.1052 132.548C25.1207 132.56 25.1332 132.575 25.1418 132.592C25.1503 132.61 25.1547 132.629 25.1545 132.649C25.6869 133.635 26.2192 134.66 26.7688 135.641C33.6139 147.933 43.2351 158.456 54.8659 166.372C66.4967 174.288 79.8156 179.379 93.7614 181.237C96.056 181.536 98.4 181.753 100.761 181.868H100.778C102.358 181.969 103.982 182.002 105.57 182.002C127.343 182.049 148.389 174.169 164.776 159.832C160.702 151.067 164.062 134.12 170.366 133.854C173.459 133.721 178.007 136.664 181.309 140.755C187.987 130.412 192.477 118.813 194.504 106.67C196.53 94.5266 196.05 82.0973 193.093 70.1468ZM26.5766 122.785C15.4486 120.091 18.6896 92.223 26.791 91.868C32.1468 91.6216 41.8108 100.598 41.8108 108.714C41.8108 116.83 30.8997 123.833 26.5766 122.785ZM112.424 128.74C105.705 127.088 108.572 116.185 113.205 114.585C117.489 113.106 125.381 116.572 124.457 121.459C123.195 128.119 115.034 129.381 112.424 128.74ZM47.487 143.609C43.3488 142.685 41.6654 134.268 44.5294 133.371C47.1666 132.54 52.4164 137.869 51.8519 140.61C51.0657 144.341 49.094 143.969 47.487 143.609ZM55.2335 74.3047C51.5365 83.9515 32.8049 90.1871 29.8867 86.8943C25.2038 81.6224 24.4471 67.236 29.4874 55.8097C35.2745 42.6532 43.0432 40.6914 45.986 40.3266C48.9288 39.9618 62.3564 55.8097 55.2335 74.3047ZM95.4818 177.77C71.1652 176.155 55.4972 156.714 64.4785 154.518C97.244 146.52 141.934 154.717 140.753 159.94C138.907 168.056 122.707 179.584 95.4818 177.77ZM169.526 109.414C143.794 117.58 122.773 63.0781 135.76 54.6291C149.2 45.8647 172.705 54.9323 179.601 64.2094C185.386 71.9854 195.255 101.231 169.526 109.414Z" fill="url(#paint14_radial_76_580)"/>
<path style="mix-blend-mode:screen" d="M98.2048 91.9357C118.678 77.7067 125.559 52.1932 113.574 34.9496C101.589 17.706 75.2775 15.2621 54.8047 29.4911C34.3319 43.72 27.4509 69.2336 39.4355 86.4772C51.4201 103.721 77.7321 106.165 98.2048 91.9357Z" fill="url(#paint15_radial_76_580)"/>
<path fill-rule="evenodd" clip-rule="evenodd" d="M142.136 13.4719C142.136 13.4719 124.553 5.15856 121.925 6.28245C119.298 7.40635 128.181 30.811 147.46 40.3197C168.099 50.4915 179.604 43.4671 179.604 43.4671L175.32 37.8526C175.32 37.8526 181.78 43.5904 182.665 45.084C182.665 45.084 171.542 58.7531 145.096 42.6587C117.334 25.7633 117.334 2.48438 117.334 2.48438C117.334 2.48438 127.851 4.37725 142.136 13.4719Z" fill="url(#paint16_radial_76_580)"/>
<path fill-rule="evenodd" clip-rule="evenodd" d="M59.5641 24.334C59.2042 24.6347 58.4204 25.1942 59.0415 25.6279C59.2091 25.7462 59.357 25.6846 59.5345 25.7364C59.6725 25.7758 59.707 25.8843 59.8672 25.8227C60.3749 25.6304 60.1704 24.196 59.601 24.4843L59.5641 24.334Z" fill="#D1DEFF"/>
<path fill-rule="evenodd" clip-rule="evenodd" d="M40.7141 92.5586C40.3542 92.8568 39.5705 93.4163 40.1916 93.8501C40.3592 93.9684 40.5071 93.9068 40.6845 93.9585C40.8225 93.998 40.857 94.1064 41.0197 94.0448C41.5126 93.8526 41.3229 92.4181 40.7511 92.7065L40.7141 92.5586Z" fill="#D1DEFF"/>
<path fill-rule="evenodd" clip-rule="evenodd" d="M62.1716 29.5488C62.3875 29.4249 62.6303 29.3555 62.879 29.3467C62.9357 29.6597 63.2191 30.266 62.7755 30.5075C62.4033 30.7121 62.529 30.0466 62.3392 29.8914L62.1716 29.5488Z" fill="#D1DEFF"/>
<path fill-rule="evenodd" clip-rule="evenodd" d="M67.2588 29.6946C67.7345 29.8819 68.2053 30.0766 68.6711 30.2836C68.8239 30.1505 69.0507 30.1752 69.2281 30.0569C69.4735 29.8694 69.6558 29.6114 69.7506 29.3175C69.8862 28.9157 69.6791 28.5781 69.5042 28.2798C69.3993 28.0409 69.2542 27.8216 69.0753 27.6316C68.8535 27.469 68.4271 27.533 68.1979 27.6316C67.6376 28.0145 67.2521 28.6039 67.1257 29.2706C67.1388 29.4396 67.19 29.6034 67.2754 29.7498C67.3607 29.8962 67.4781 30.0214 67.6187 30.116L67.2588 29.6946Z" fill="#D1DEFF"/>
<path fill-rule="evenodd" clip-rule="evenodd" d="M71.5375 126.961C72.0124 127.148 72.4831 127.345 72.9498 127.552C73.1026 127.417 73.3293 127.444 73.5068 127.325C73.7511 127.136 73.9338 126.879 74.0318 126.586C74.1649 126.182 73.9578 125.847 73.773 125.546C73.6681 125.308 73.523 125.089 73.3441 124.9C73.1223 124.735 72.6959 124.802 72.4667 124.9C71.9067 125.284 71.5206 125.873 71.3921 126.539C71.4061 126.708 71.4576 126.872 71.5428 127.019C71.6281 127.165 71.745 127.291 71.885 127.387L71.5375 126.961Z" fill="#D1DEFF"/>
<path fill-rule="evenodd" clip-rule="evenodd" d="M170.201 123.675C170.677 123.862 171.148 124.057 171.613 124.264C171.766 124.131 171.993 124.156 172.171 124.037C172.416 123.85 172.598 123.592 172.693 123.298C172.826 122.896 172.622 122.559 172.447 122.26C172.342 122.021 172.197 121.802 172.018 121.612C171.796 121.449 171.369 121.514 171.14 121.612C170.581 121.997 170.195 122.587 170.066 123.254C170.079 123.422 170.131 123.586 170.216 123.732C170.301 123.879 170.418 124.004 170.559 124.099L170.201 123.675Z" fill="#D1DEFF"/>
<path fill-rule="evenodd" clip-rule="evenodd" d="M53.6858 34.2614C53.4848 34.401 53.3166 34.5826 53.1929 34.7938C53.3876 35.0402 53.4837 35.2695 53.8164 35.3656C53.8799 35.391 53.9491 35.3985 54.0164 35.3872C54.0838 35.3759 54.1468 35.3462 54.1985 35.3015C54.3365 35.1659 54.2601 35.0181 54.2995 34.8825C54.3907 34.5596 54.4794 34.4758 54.2995 34.1801C54.1911 34.0026 54.1147 33.9336 53.92 33.9336C53.7844 33.9336 53.4911 33.973 53.427 34.1234L53.6858 34.2614Z" fill="#D1DEFF"/>
<path fill-rule="evenodd" clip-rule="evenodd" d="M54.7652 41.7881C54.7282 41.8694 54.3635 42.7986 54.8392 42.5275C55.0856 42.3944 54.992 42.0346 54.8392 41.9236C54.8392 41.8916 54.854 41.862 54.8638 41.8325L54.7652 41.7881Z" fill="#D1DEFF"/>
<path fill-rule="evenodd" clip-rule="evenodd" d="M47.4649 87.7451C47.4304 87.8289 47.0631 88.7581 47.5388 88.4845C47.5853 88.4489 47.623 88.403 47.6489 88.3504C47.6749 88.2978 47.6884 88.24 47.6884 88.1814C47.6884 88.1227 47.6749 88.0649 47.6489 88.0123C47.623 87.9598 47.5853 87.9139 47.5388 87.8782L47.5634 87.787L47.4649 87.7451Z" fill="#D1DEFF"/>
<path fill-rule="evenodd" clip-rule="evenodd" d="M71.4265 47.9747C71.192 48.2744 71.024 48.6205 70.9336 48.9901C71.0993 49.1178 71.3037 49.1848 71.5128 49.1799C71.7888 49.1676 71.8036 49.0764 71.811 48.8127C71.8548 48.6187 71.8697 48.4194 71.8554 48.2212C71.8012 48.0092 71.5917 47.7923 71.3452 47.9279L71.4265 47.9747Z" fill="#D1DEFF"/>
<path fill-rule="evenodd" clip-rule="evenodd" d="M58.4968 35.1658C58.6769 35.3279 58.7976 35.5457 58.8394 35.7844C58.5929 35.8485 58.556 35.5996 58.519 35.4024C58.4599 35.0869 58.6053 35.1855 58.7507 34.9316L58.8345 34.9514L58.4968 35.1658Z" fill="#D1DEFF"/>
<path fill-rule="evenodd" clip-rule="evenodd" d="M56.0075 25.2303C55.8073 25.3708 55.6392 25.5523 55.5145 25.7627C55.6353 25.9105 55.5761 26.1792 55.8571 26.1595C56.0518 26.1447 56.2145 25.9352 56.3082 25.7725C56.3996 25.6048 56.4463 25.4164 56.4437 25.2254C56.4437 25.1219 56.4437 24.6782 56.2589 24.9789L56.0075 25.2303Z" fill="#D1DEFF"/>
<path fill-rule="evenodd" clip-rule="evenodd" d="M88.2061 20.0797C88.249 19.8207 88.3218 19.5676 88.4229 19.3255C88.4575 19.2688 88.5437 19.2146 88.5856 19.1529C88.7261 18.9508 88.6817 18.9065 88.9134 18.9065C89.0268 18.8928 89.1417 18.9022 89.2514 18.9339C89.3611 18.9657 89.4632 19.0192 89.5518 19.0913C90.2591 19.6557 88.4624 20.0772 88.3958 19.5448L88.2061 20.0797Z" fill="#D1DEFF"/>
<path fill-rule="evenodd" clip-rule="evenodd" d="M94.2372 22.3105C94.1484 22.7196 93.8847 23.2742 94.2643 23.5428C94.5896 23.7745 95.2723 23.4097 95.5311 23.1731C95.9895 22.7541 96.549 21.9605 96.1078 21.3764C95.9254 21.1924 95.7074 21.0476 95.4671 20.9505C95.2269 20.8535 94.9694 20.8064 94.7104 20.812C93.8527 20.8933 93.6037 21.9162 93.478 22.7344L94.2372 22.3105Z" fill="#D1DEFF"/>
<path fill-rule="evenodd" clip-rule="evenodd" d="M57.8584 45.7988C57.7672 46.2079 57.5059 46.7625 57.883 47.0311C58.2084 47.2628 58.8911 46.8956 59.1499 46.6614C59.6083 46.2424 60.1678 45.4488 59.7291 44.8647C59.5461 44.6808 59.3276 44.5359 59.087 44.4389C58.8464 44.3419 58.5885 44.2947 58.3291 44.3002C57.4714 44.3816 57.2225 45.4044 57.0968 46.2227L57.8584 45.7988Z" fill="#D1DEFF"/>
<path fill-rule="evenodd" clip-rule="evenodd" d="M158.457 118.307C158.366 118.716 158.104 119.268 158.482 119.54C158.807 119.774 159.49 119.406 159.748 119.172C160.207 118.753 160.766 117.96 160.328 117.376C160.145 117.191 159.927 117.046 159.686 116.949C159.445 116.852 159.187 116.805 158.928 116.811C158.07 116.89 157.821 117.913 157.695 118.731L158.457 118.307Z" fill="#D1DEFF"/>
<path fill-rule="evenodd" clip-rule="evenodd" d="M191.538 103.73C191.449 104.14 191.185 104.692 191.565 104.963C191.89 105.197 192.573 104.83 192.829 104.595C193.29 104.177 193.85 103.383 193.409 102.799C193.226 102.614 193.009 102.469 192.768 102.371C192.528 102.274 192.27 102.226 192.011 102.232C191.153 102.313 190.902 103.336 190.779 104.154L191.538 103.73Z" fill="#D1DEFF"/>
<path fill-rule="evenodd" clip-rule="evenodd" d="M96.8768 14.0265C96.7856 13.3241 96.6575 12.6315 97.281 12.2643C97.6212 12.0646 98.2423 11.9932 98.5651 12.2298C98.8005 12.44 98.9966 12.6903 99.1443 12.9692C99.3563 13.3241 99.3021 13.3241 99.1887 13.647C98.9422 14.3864 98.7574 14.8793 98.018 14.8793C97.0321 14.8793 96.8892 14.1202 96.8768 13.1762V14.0265Z" fill="#D1DEFF"/>
<path fill-rule="evenodd" clip-rule="evenodd" d="M105.925 26.3477C106.455 26.2046 106.934 25.914 107.305 25.5097C106.921 25.2632 106.073 24.7703 105.925 25.5097V26.3477Z" fill="#D1DEFF"/>
<path fill-rule="evenodd" clip-rule="evenodd" d="M74.8254 138.173C75.3558 138.03 75.8345 137.739 76.2057 137.335C75.8212 137.088 74.9733 136.595 74.8254 137.322V138.173Z" fill="#D1DEFF"/>
<path fill-rule="evenodd" clip-rule="evenodd" d="M132.521 150.274C133.052 150.133 133.531 149.842 133.901 149.436C133.517 149.19 132.669 148.697 132.521 149.436V150.274Z" fill="#D1DEFF"/>
<path fill-rule="evenodd" clip-rule="evenodd" d="M112.9 37.1817C113.432 36.5261 114.204 35.3307 115.17 35.9863C115.732 36.3659 115.892 37.3764 115.355 37.7757C114.898 38.0884 114.382 38.304 113.839 38.4091C113.41 38.5274 112.769 38.2415 112.9 37.6056V37.1817Z" fill="#D1DEFF"/>
<path fill-rule="evenodd" clip-rule="evenodd" d="M61.8315 109.188C62.3663 108.532 63.1353 107.337 64.1015 107.992C64.6634 108.374 64.8236 109.382 64.2863 109.784C63.7934 110.156 63.3325 110.26 62.7706 110.415C62.3417 110.533 61.7033 110.25 61.8315 109.614V109.188Z" fill="#D1DEFF"/>
<path fill-rule="evenodd" clip-rule="evenodd" d="M147.215 142.668C147.748 142.012 148.517 140.817 149.485 141.473C150.047 141.852 150.208 142.86 149.67 143.262C149.214 143.574 148.698 143.79 148.155 143.895C147.726 144.011 147.085 143.728 147.215 143.092V142.668Z" fill="#D1DEFF"/>
<path fill-rule="evenodd" clip-rule="evenodd" d="M75.5328 52.7735C76.0652 52.1179 76.8366 50.9225 77.8028 51.5781C78.3647 51.9577 78.5249 52.9658 77.9876 53.3675C77.5315 53.6804 77.0153 53.8953 76.4719 53.9985C76.043 54.1168 75.4046 53.8333 75.5328 53.1974V52.7735Z" fill="#D1DEFF"/>
<path fill-rule="evenodd" clip-rule="evenodd" d="M106.366 24.2823C106.901 23.6267 107.67 22.4313 108.636 23.0869C109.198 23.4689 109.358 24.477 108.821 24.8787C108.363 25.1896 107.848 25.4043 107.305 25.5097C106.876 25.628 106.238 25.3421 106.366 24.7062V24.2823Z" fill="#D1DEFF"/>
<path fill-rule="evenodd" clip-rule="evenodd" d="M183 59.4649C183.533 58.8093 184.304 57.6139 185.27 58.2695C185.832 58.6491 185.992 59.6572 185.455 60.0589C184.999 60.3716 184.483 60.5872 183.939 60.6923C183.511 60.8082 182.872 60.5247 183 59.8888V59.4649Z" fill="#D1DEFF"/>
<path fill-rule="evenodd" clip-rule="evenodd" d="M102.777 82.4578C103.31 81.8047 104.081 80.6093 105.047 81.2625C105.609 81.6445 105.77 82.6526 105.232 83.0543C104.739 83.4265 104.278 83.53 103.716 83.6853C103.288 83.8036 102.649 83.5201 102.777 82.8842V82.4578Z" fill="#D1DEFF"/>
<path fill-rule="evenodd" clip-rule="evenodd" d="M67.0025 16.9869C65.1121 18.1872 61.9351 19.6734 61.6147 22.2638C61.42 23.8289 62.1421 24.7482 63.5519 25.426C64.7547 26.0027 66.5613 26.0545 67.7665 25.4432C69.4918 24.5707 71.4956 23.1314 72.2744 21.2902C72.8364 19.9618 72.7427 19.0498 72.1191 17.7337C71.7839 17.0263 71.116 16.1809 70.3569 15.9172C67.944 15.0792 66.4947 17.4478 64.7078 18.5175L67.0025 16.9869Z" fill="#D1DEFF"/>
<path fill-rule="evenodd" clip-rule="evenodd" d="M74.6035 26.8669C74.9647 26.9926 75.2885 27.207 75.5451 27.4905C75.1754 27.6162 74.7761 27.9095 74.3965 27.7739C73.9036 27.599 73.8124 27.1307 73.9233 26.6599C73.9849 26.4134 74.4458 25.9501 74.7095 26.0635C74.8451 26.1201 74.8697 26.3099 74.9141 26.4184C75.0053 26.6648 75.0102 26.6131 74.8796 26.8669H74.6035Z" fill="#D1DEFF"/>
<path fill-rule="evenodd" clip-rule="evenodd" d="M192.068 83.6536C192.429 83.7774 192.753 83.9912 193.009 84.2747C192.64 84.4004 192.24 84.6937 191.861 84.5581C191.368 84.3831 191.277 83.9148 191.388 83.4441C191.447 83.1976 191.91 82.7343 192.174 82.8476C192.307 82.9068 192.334 83.0941 192.376 83.2026C192.47 83.449 192.475 83.3973 192.344 83.6536H192.068Z" fill="#D1DEFF"/>
<path fill-rule="evenodd" clip-rule="evenodd" d="M52.9463 29.1994C51.9063 30.1114 50.9302 31.1983 50.3781 32.5021C50.0972 33.1651 50.5975 33.1996 51.1989 33.0813C52.3671 32.8521 53.5403 32.5292 54.6938 32.2335C55.379 32.0585 56.3575 31.6986 56.8332 31.1194C57.1939 30.6036 57.3486 29.9714 57.2669 29.3473C57.1536 28.566 56.599 28.2604 55.8867 28.0632C54.265 27.6146 52.1774 28.6843 51.576 30.1779L52.9463 29.1994Z" fill="#D1DEFF"/>
<path fill-rule="evenodd" clip-rule="evenodd" d="M57.1806 36.0635C57.7509 36.0755 58.3105 36.2207 58.8147 36.4874C58.6668 36.6599 58.7161 36.8965 58.6372 37.0986C58.4971 37.4177 58.2644 37.6873 57.9693 37.8726C57.7163 38.0214 57.4352 38.116 57.1437 38.1504C56.8522 38.1847 56.5567 38.1581 56.2761 38.0722C54.7628 37.5004 57.0845 35.7061 57.5947 36.3469L57.1806 36.0635Z" fill="#D1DEFF"/>
<path fill-rule="evenodd" clip-rule="evenodd" d="M85.7957 12.5006C86.3601 12.2295 86.8678 11.882 87.4791 11.7809C88.1591 11.6388 88.8501 11.5564 89.5445 11.5344C89.9043 11.5344 90.7078 11.5049 90.4761 12.089C90.2296 12.7249 88.8544 13.3213 88.3097 13.585C87.378 14.0238 86.5031 14.4649 85.458 14.5709C84.9306 14.6251 84.0458 14.6646 83.7475 14.1347C83.5011 13.691 83.6169 13.3263 83.8609 12.9171C84.0809 12.535 84.4376 12.2505 84.8591 12.121C85.076 12.0348 86.2862 11.7119 86.3379 12.0914L85.7957 12.5006Z" fill="#D1DEFF"/>
<path fill-rule="evenodd" clip-rule="evenodd" d="M76.4053 12.7764C76.1588 12.9563 74.2462 14.0087 75.1557 14.4745C75.6486 14.721 76.6049 14.6495 77.1003 14.44C77.5415 14.2527 77.99 13.9619 77.7115 13.4542C77.1521 12.4288 75.7398 13.0204 75.0226 13.4665L76.4053 12.7764Z" fill="#D1DEFF"/>
<path fill-rule="evenodd" clip-rule="evenodd" d="M111.741 4.29785C111.31 4.61087 107.998 6.44952 109.573 7.25547C110.42 7.68186 112.087 7.55863 112.949 7.19385C113.716 6.86852 114.49 6.36326 114.009 5.48336C113.038 3.70386 110.603 4.73164 109.343 5.50555L111.741 4.29785Z" fill="#D1DEFF"/>
<path fill-rule="evenodd" clip-rule="evenodd" d="M50.0084 85.8031C50.1489 86.5893 50.3091 87.4495 50.9943 87.9695C51.6795 88.4896 52.5027 88.2899 53.1977 87.8783C53.7128 87.5752 54.2009 87.2499 54.7036 86.9393C54.9994 86.7594 55.2557 86.715 55.2681 86.2935C55.2804 85.8721 54.8663 85.2387 54.6075 84.8961C54.2293 84.4276 53.743 84.0579 53.1903 83.819C52.1354 83.4247 50.1218 83.819 50.1464 85.251L50.0084 85.8031Z" fill="#D1DEFF"/>
<path fill-rule="evenodd" clip-rule="evenodd" d="M112.234 87.8021C112.508 89.3253 112.821 90.9914 114.147 91.9921C115.52 93.0346 117.073 92.6131 118.421 91.8171C119.407 91.228 120.363 90.5995 121.339 89.9981C121.908 89.6481 122.409 89.5594 122.433 88.7461C122.46 87.8711 121.654 86.6979 121.154 86.0349C120.419 85.1284 119.476 84.4123 118.406 83.9473C116.36 83.1833 112.456 83.9473 112.491 86.725L112.234 87.8021Z" fill="#D1DEFF"/>
<path fill-rule="evenodd" clip-rule="evenodd" d="M151.396 14.5435C150.839 15.3248 150.777 15.3741 150.725 16.148C150.698 16.5596 150.602 17.2423 150.757 17.6268C151.019 18.2947 151.99 18.8937 152.697 18.8099C153.286 18.7384 153.991 18.3169 154.541 18.0705C155.236 17.7525 155.586 17.2349 155.884 16.5571C156.182 15.8793 156.002 15.4308 155.716 14.7653C155.441 14.0973 155.043 13.487 154.543 12.9661C153.971 12.4115 153.219 12.1035 152.517 12.5693C151.889 12.9833 151.191 13.9963 151.171 14.7653L151.396 14.5435Z" fill="#FFC445"/>
<path fill-rule="evenodd" clip-rule="evenodd" d="M16.0697 111.438C15.7764 111.85 15.7443 111.874 15.7172 112.284C15.6748 112.544 15.6806 112.809 15.7345 113.067C15.8293 113.257 15.976 113.416 16.1574 113.526C16.3388 113.636 16.5477 113.692 16.7598 113.688C17.0998 113.603 17.4265 113.471 17.7309 113.297C17.8953 113.217 18.0424 113.106 18.1638 112.969C18.2852 112.832 18.3784 112.673 18.4382 112.5C18.596 112.143 18.4999 111.906 18.3495 111.556C18.2052 111.204 17.9962 110.883 17.7333 110.608C17.4326 110.317 17.0358 110.154 16.6637 110.398C16.4736 110.533 16.3129 110.706 16.1913 110.905C16.0697 111.104 15.9898 111.326 15.9563 111.556L16.0697 111.438Z" fill="#FFC445"/>
<path fill-rule="evenodd" clip-rule="evenodd" d="M157.449 23.9541C157.991 24.103 158.476 24.4092 158.844 24.834C158.467 24.9375 158.538 25.4058 158.132 25.534C157.668 25.6818 157.392 25.1766 157 25.2875L157.449 23.9541Z" fill="#FF8800"/>
<path fill-rule="evenodd" clip-rule="evenodd" d="M119.118 185.263C119.66 185.412 120.145 185.718 120.513 186.143C120.136 186.246 120.208 186.714 119.803 186.843C119.338 186.99 119.064 186.485 118.67 186.596L119.118 185.263Z" fill="#FFC445"/>
<path fill-rule="evenodd" clip-rule="evenodd" d="M168.658 5.56953C168.518 5.98852 167.764 7.46487 167.985 7.94548C168.232 8.50004 168.924 8.26096 169.331 7.98985C169.602 7.80992 169.753 7.55113 170.004 7.35149C170.213 7.18389 170.497 7.10503 170.687 6.92757C170.876 6.75011 170.933 6.44942 171.113 6.23746C171.293 6.02549 171.606 5.87515 171.779 5.65579C172.271 5.01497 172.106 4.06114 171.286 3.827C169.836 3.40553 169.267 4.60584 168.422 5.56953H168.658Z" fill="#FFC445"/>
<path fill-rule="evenodd" clip-rule="evenodd" d="M174.889 148.606C174.751 149.025 173.994 150.501 174.219 150.982C174.465 151.536 175.155 151.297 175.562 151.029C175.833 150.846 175.986 150.587 176.235 150.388C176.444 150.22 176.728 150.154 176.92 149.964C177.112 149.774 177.167 149.486 177.344 149.274C177.521 149.062 177.837 148.911 178.012 148.692C178.505 148.051 178.337 147.097 177.519 146.863C176.072 146.444 175.503 147.642 174.655 148.606H174.889Z" fill="#FFC445"/>
<path fill-rule="evenodd" clip-rule="evenodd" d="M94.9224 159.029C94.7843 159.445 94.0277 160.922 94.252 161.402C94.4984 161.957 95.1885 161.72 95.5952 161.449C95.8688 161.269 96.0191 161.008 96.2681 160.808C96.4776 160.643 96.761 160.562 96.9532 160.384C97.1455 160.207 97.1997 159.909 97.3772 159.697C97.5546 159.485 97.8701 159.332 98.0451 159.112C98.538 158.474 98.3704 157.52 97.5522 157.286C96.1054 156.865 95.5361 158.062 94.6882 159.029H94.9224Z" fill="#FFC445"/>
<path fill-rule="evenodd" clip-rule="evenodd" d="M180.765 1.7596C181.14 0.931466 181.27 0.510005 182.061 0.127979C182.458 -0.0618013 183.015 -0.118489 182.998 0.519864C182.998 0.813161 182.52 1.43426 182.337 1.64869C182 2.04797 181.526 2.08494 181.029 1.94445C181.014 1.88283 181.002 1.82122 180.989 1.7596H180.765Z" fill="#FFC445"/>
<path fill-rule="evenodd" clip-rule="evenodd" d="M36.709 66.1737C37.0836 65.3455 37.2142 64.9241 38.0054 64.542C38.4022 64.3523 38.9592 64.2956 38.942 64.9339C38.942 65.2272 38.4638 65.8483 38.2815 66.0628C37.9413 66.462 37.4706 66.499 36.9727 66.3585C36.9579 66.2969 36.9456 66.2353 36.9333 66.1737H36.709Z" fill="#FFC445"/>
<path fill-rule="evenodd" clip-rule="evenodd" d="M96.554 198.84C96.8522 198.185 96.9532 197.855 97.5793 197.549C97.8947 197.396 98.3359 197.357 98.3187 197.859C98.3187 198.089 97.9391 198.582 97.7937 198.752C97.525 199.067 97.1529 199.097 96.7561 198.998L96.7265 198.853L96.554 198.84Z" fill="#FFC445"/>
<path fill-rule="evenodd" clip-rule="evenodd" d="M172.952 72.7743C172.826 72.306 171.818 73.2105 172.171 72.8458C172.556 72.5142 172.996 72.2531 173.472 72.0743C173.909 71.8607 174.412 71.8262 174.874 71.9782C175.649 72.1959 176.319 72.6838 176.765 73.3535C177.896 75.2858 176.363 76.9741 174.527 77.6889C172.802 78.3543 170.423 78.0265 170.026 75.9242C169.915 75.3351 170.214 74.12 170.699 73.7059C171.185 73.2919 172.301 72.8753 172.952 72.7644V72.7743Z" fill="#FF8800"/>
<path fill-rule="evenodd" clip-rule="evenodd" d="M33.5197 109.794C33.4482 109.446 32.8592 110.119 33.0637 109.848C33.2778 109.609 33.5365 109.414 33.8253 109.274C33.9455 109.196 34.0829 109.149 34.2256 109.136C34.3682 109.124 34.5118 109.146 34.6436 109.202C35.1272 109.392 35.5215 109.758 35.7478 110.225C36.4083 111.665 35.5013 112.919 34.439 113.451C33.4408 113.944 32.0458 113.698 31.8117 112.138C31.7476 111.702 31.9226 110.797 32.206 110.494C32.5787 110.155 33.0303 109.914 33.5197 109.794Z" fill="#FFC445"/>
<path fill-rule="evenodd" clip-rule="evenodd" d="M41.8997 78.3475C42.0549 78.1528 41.4289 78.1355 41.6532 78.1257C41.8781 78.1345 42.0992 78.1872 42.3039 78.2809C42.3992 78.3111 42.4856 78.3641 42.5557 78.4355C42.6257 78.5068 42.6772 78.5942 42.7056 78.6901C42.8184 79.0359 42.7973 79.4115 42.6465 79.7425C42.1535 80.7431 41.0838 80.8171 40.3198 80.4819C39.605 80.1615 39.117 79.2988 39.8589 78.4756C40.1461 78.1897 40.5194 78.0061 40.9212 77.9531C41.2712 78.0045 41.6032 78.1416 41.8873 78.3524L41.8997 78.3475Z" fill="#FFC445"/>
<path fill-rule="evenodd" clip-rule="evenodd" d="M119.461 159.847C119.434 159.446 118.475 160.02 118.813 159.778C119.181 159.571 119.582 159.429 119.998 159.359C120.39 159.257 120.806 159.311 121.159 159.51C121.755 159.811 122.223 160.317 122.478 160.934C123.089 162.694 121.566 163.823 119.954 164.109C118.448 164.377 116.552 163.722 116.567 161.945C116.567 161.452 117.011 160.503 117.472 160.252C118.098 159.977 118.777 159.839 119.461 159.847Z" fill="#FF8800"/>
<path fill-rule="evenodd" clip-rule="evenodd" d="M28.0407 53.0789C27.915 52.6106 27.7942 52.3937 28.1566 52.0289C28.5423 51.6982 28.9827 51.4372 29.4579 51.2575C29.8956 51.0459 30.3983 51.0123 30.8603 51.1638C31.6348 51.3797 32.3058 51.867 32.7507 52.5366C33.882 54.4714 32.349 56.1572 30.5128 56.872C28.7875 57.5399 26.4091 57.2097 26.0123 55.1073C25.9014 54.5182 26.1996 53.3031 26.6827 52.8891C27.1657 52.475 28.2872 52.0585 28.9354 51.9476L28.0407 53.0789Z" fill="#FFC445"/>
<path fill-rule="evenodd" clip-rule="evenodd" d="M191.077 63.8621C191.057 65.2276 191.213 65.129 192.418 65.3853C193.31 65.5751 194.047 65.0427 194.838 64.7026C195.287 64.5093 195.677 64.1996 195.967 63.8055C196.314 63.3125 196.287 63.1129 195.841 62.7407C195.538 62.4942 195.156 62.1689 194.759 62.0876C194.513 62.0383 194.284 62.0678 194.042 62.0186C193.889 61.9865 193.773 61.8657 193.549 61.8337C192.994 61.7474 191.713 62.1664 191.277 62.5066C190.904 62.7974 190.522 63.6231 190.619 64.0864L191.077 63.8621Z" fill="#FFC445"/>
<path fill-rule="evenodd" clip-rule="evenodd" d="M205.16 70.0712C205.097 69.9281 205.069 69.7714 205.081 69.6152C205.269 69.492 205.291 69.2406 205.527 69.1223C205.612 69.0775 205.705 69.0522 205.801 69.0484C205.896 69.0445 205.992 69.0622 206.08 69.1001C206.407 69.2677 206.397 69.6842 206.237 69.948C206.119 70.1451 206.008 70.4705 205.781 70.5937C205.495 70.7465 205.069 70.4113 204.978 70.155L205.16 70.0712Z" fill="#FFC445"/>
<path fill-rule="evenodd" clip-rule="evenodd" d="M188.63 159.536C188.565 159.393 188.537 159.236 188.548 159.08C188.738 158.957 188.76 158.708 188.994 158.587C189.079 158.542 189.172 158.517 189.268 158.513C189.364 158.509 189.459 158.527 189.547 158.565C189.877 158.733 189.864 159.149 189.704 159.415C189.586 159.61 189.475 159.935 189.251 160.059C188.965 160.214 188.536 159.876 188.445 159.62L188.63 159.536Z" fill="#FFC445"/>
<path fill-rule="evenodd" clip-rule="evenodd" d="M114.24 165.015C114.176 164.873 114.148 164.717 114.159 164.562C114.349 164.438 114.371 164.187 114.605 164.069C114.69 164.024 114.783 163.998 114.879 163.994C114.974 163.99 115.069 164.007 115.157 164.044C115.488 164.214 115.475 164.631 115.315 164.894C115.197 165.089 115.086 165.417 114.862 165.538C114.576 165.693 114.147 165.355 114.058 165.099L114.24 165.015Z" fill="#FFC445"/>
<path fill-rule="evenodd" clip-rule="evenodd" d="M13.1318 51.6099C13.0675 51.4678 13.0395 51.3119 13.0505 51.1564C13.2403 51.0307 13.2625 50.7817 13.4966 50.6634C13.581 50.6184 13.6743 50.5928 13.7699 50.5885C13.8654 50.5843 13.9607 50.6014 14.0487 50.6388C14.379 50.8088 14.3667 51.2254 14.2065 51.4891C14.0906 51.6838 13.9797 52.0116 13.7529 52.1324C13.467 52.2876 13.0407 51.95 12.9495 51.6937L13.1318 51.6099Z" fill="#FFC445"/>
<path fill-rule="evenodd" clip-rule="evenodd" d="M165.967 95.4748C166.334 94.8389 166.418 94.5604 167.091 94.4051C167.424 94.3263 167.931 94.2499 168.22 94.4544C168.678 94.7798 168.826 96.0614 168.614 96.5445C168.303 97.2444 167.342 97.1311 166.815 96.8797C165.992 96.4878 165.76 96.1205 165.743 95.2505L165.967 95.4748Z" fill="#FFC445"/>
<path fill-rule="evenodd" clip-rule="evenodd" d="M212.601 43.4595C212.541 43.5288 212.496 43.6095 212.468 43.6967C212.44 43.784 212.43 43.876 212.438 43.9672C212.843 44.2359 214.077 43.9524 213.996 43.3338C213.957 43.0282 213.585 42.9271 213.331 42.8951C212.801 42.8285 212.532 43.2943 212.263 43.6838L212.601 43.4595Z" fill="#FFC445"/>
<path fill-rule="evenodd" clip-rule="evenodd" d="M141.054 63.606C140.995 63.6753 140.95 63.7557 140.923 63.8424C140.895 63.9292 140.885 64.0206 140.894 64.1112C141.295 64.3799 142.53 64.0965 142.451 63.4803C142.41 63.1722 142.04 63.0736 141.783 63.0416C141.256 62.975 140.987 63.4384 140.719 63.8303L141.054 63.606Z" fill="#FFC445"/>
<path fill-rule="evenodd" clip-rule="evenodd" d="M4.03466 61.8042C3.97562 61.8735 3.93103 61.9539 3.90352 62.0407C3.87601 62.1275 3.86613 62.2188 3.87446 62.3095C4.2762 62.5781 5.51101 62.2947 5.43214 61.6785C5.39024 61.3729 5.02053 61.2719 4.76421 61.2398C4.23676 61.1733 3.96811 61.6366 3.69946 62.0285L4.03466 61.8042Z" fill="#FFC445"/>
<path fill-rule="evenodd" clip-rule="evenodd" d="M0.335197 110.018C0.275967 110.088 0.231279 110.169 0.203765 110.256C0.176251 110.343 0.166468 110.435 0.174993 110.526C0.576736 110.792 1.81154 110.509 1.73267 109.892C1.69077 109.587 1.32107 109.486 1.06474 109.454C0.537301 109.387 0.268651 109.851 0 110.242L0.335197 110.018Z" fill="#FFC445"/>
<path fill-rule="evenodd" clip-rule="evenodd" d="M94.6735 187.844C94.3876 188.972 94.1436 189.616 95.0235 190.407C95.7039 190.962 96.5611 191.254 97.4389 191.23C98.7205 191.151 100.855 190.123 100.396 188.499C100.165 187.666 98.8635 186.665 98.0427 186.481C96.3667 186.101 94.6981 187.447 94.6636 189.192L94.6735 187.844Z" fill="#FFC445"/>
<path style="mix-blend-mode:screen" fill-rule="evenodd" clip-rule="evenodd" d="M51.82 160.946C42.6169 153.245 35.0709 143.758 29.6378 133.058C26.1709 126.223 23.6162 118.963 22.0392 111.463C22.0258 111.439 22.0206 111.413 22.0244 111.386C20.7707 105.378 20.138 99.2576 20.1364 93.1204C20.1364 69.6534 29.4586 47.1477 46.0523 30.554C62.6459 13.9604 85.1517 4.63823 108.619 4.63823C110.553 4.63823 112.456 4.69984 114.359 4.82308C120.258 5.20032 126.104 6.1697 131.809 7.71662C124.756 5.40654 117.44 3.99869 110.033 3.52665C108.131 3.40342 106.228 3.3418 104.293 3.3418C92.6722 3.33759 81.1645 5.62338 70.4274 10.0685C59.6904 14.5137 49.9345 21.0311 41.7173 29.2482C33.5002 37.4654 26.9828 47.2213 22.5376 57.9583C18.0925 68.6954 15.8067 80.2031 15.8109 91.8239C15.8109 97.9644 16.4427 104.089 17.6964 110.1C17.6926 110.126 17.6978 110.153 17.7112 110.176C19.2882 117.676 21.8429 124.937 25.3098 131.772C30.927 142.837 38.8014 152.602 48.4248 160.436C58.0483 168.271 69.2073 174.001 81.1817 177.257C70.4405 173.75 60.4728 168.213 51.82 160.946Z" fill="url(#paint17_radial_76_580)"/>
<defs>
<radialGradient id="paint0_radial_76_580" cx="0" cy="0" r="1" gradientUnits="userSpaceOnUse" gradientTransform="translate(51.7633 49.6214) scale(153.907 153.907)">
<stop stop-color="#4F8CFF"/>
<stop offset="0.15" stop-color="#4A85F8"/>
<stop offset="0.36" stop-color="#3E72E6"/>
<stop offset="0.61" stop-color="#2952C8"/>
<stop offset="0.9" stop-color="#0C279F"/>
<stop offset="1" stop-color="#00158E"/>
</radialGradient>
<radialGradient id="paint1_radial_76_580" cx="0" cy="0" r="1" gradientUnits="userSpaceOnUse" gradientTransform="translate(56.7987 55.0094) scale(139.262 139.262)">
<stop offset="0.01" stop-color="#FF7263"/>
<stop offset="0.21" stop-color="#FC6F63"/>
<stop offset="0.37" stop-color="#F46562"/>
<stop offset="0.51" stop-color="#E55560"/>
<stop offset="0.64" stop-color="#D03D5D"/>
<stop offset="0.77" stop-color="#B6205A"/>
<stop offset="0.88" stop-color="#9A0057"/>
<stop offset="0.99" stop-color="#9A00AE"/>
</radialGradient>
<radialGradient id="paint2_radial_76_580" cx="0" cy="0" r="1" gradientUnits="userSpaceOnUse" gradientTransform="translate(142.087 63.4285) scale(52.3055)">
<stop stop-color="#0088E8"/>
<stop offset="0.19" stop-color="#1696EE"/>
<stop offset="0.53" stop-color="#35AAF7"/>
<stop offset="0.81" stop-color="#48B7FD"/>
<stop offset="1" stop-color="#4FBBFF"/>
</radialGradient>
<linearGradient id="paint3_linear_76_580" x1="30.6138" y1="57.8923" x2="64.6166" y2="57.8923" gradientUnits="userSpaceOnUse">
<stop offset="0.01" stop-color="#A131A4"/>
<stop offset="1" stop-color="#FFC0B3"/>
</linearGradient>
<linearGradient id="paint4_linear_76_580" x1="100.463" y1="179.512" x2="100.463" y2="153.65" gradientUnits="userSpaceOnUse">
<stop stop-color="#4FBBFF"/>
<stop offset="0.19" stop-color="#48B7FD"/>
<stop offset="0.47" stop-color="#35AAF7"/>
<stop offset="0.81" stop-color="#1696EE"/>
<stop offset="1" stop-color="#0088E8"/>
</linearGradient>
<linearGradient id="paint5_linear_76_580" x1="37.515" y1="88.1471" x2="37.515" y2="38.119" gradientUnits="userSpaceOnUse">
<stop stop-color="#4FBBFF"/>
<stop offset="0.19" stop-color="#48B7FD"/>
<stop offset="0.47" stop-color="#35AAF7"/>
<stop offset="0.81" stop-color="#1696EE"/>
<stop offset="1" stop-color="#0088E8"/>
</linearGradient>
<linearGradient id="paint6_linear_76_580" x1="105.459" y1="119.611" x2="129.396" y2="119.611" gradientUnits="userSpaceOnUse">
<stop stop-color="#0088E8"/>
<stop offset="0.03" stop-color="#0B8EE9"/>
<stop offset="0.24" stop-color="#4FB0F0"/>
<stop offset="0.43" stop-color="#87CCF5"/>
<stop offset="0.61" stop-color="#B3E2F9"/>
<stop offset="0.77" stop-color="#D3F2FC"/>
<stop offset="0.91" stop-color="#E6FCFE"/>
<stop offset="1" stop-color="#EDFFFF"/>
</linearGradient>
<linearGradient id="paint7_linear_76_580" x1="50.6885" y1="133.013" x2="38.2617" y2="139.791" gradientUnits="userSpaceOnUse">
<stop stop-color="#0088E8"/>
<stop offset="0.03" stop-color="#0B8EE9"/>
<stop offset="0.24" stop-color="#4FB0F0"/>
<stop offset="0.43" stop-color="#87CCF5"/>
<stop offset="0.61" stop-color="#B3E2F9"/>
<stop offset="0.77" stop-color="#D3F2FC"/>
<stop offset="0.91" stop-color="#E6FCFE"/>
<stop offset="1" stop-color="#EDFFFF"/>
</linearGradient>
<linearGradient id="paint8_linear_76_580" x1="122.645" y1="70.3367" x2="180.797" y2="70.3367" gradientUnits="userSpaceOnUse">
<stop offset="0.01" stop-color="#A131A4"/>
<stop offset="1" stop-color="#FFC0B3"/>
</linearGradient>
<linearGradient id="paint9_linear_76_580" x1="110.423" y1="24.7655" x2="144.785" y2="24.7655" gradientUnits="userSpaceOnUse">
<stop offset="0.01" stop-color="#A131A4"/>
<stop offset="1" stop-color="#FFC0B3"/>
</linearGradient>
<linearGradient id="paint10_linear_76_580" x1="26.0245" y1="99.5582" x2="45.9096" y2="99.5582" gradientUnits="userSpaceOnUse">
<stop offset="0.01" stop-color="#A131A4"/>
<stop offset="1" stop-color="#FFC0B3"/>
</linearGradient>
<linearGradient id="paint11_linear_76_580" x1="101.348" y1="115.579" x2="128.134" y2="115.579" gradientUnits="userSpaceOnUse">
<stop offset="0.01" stop-color="#A131A4"/>
<stop offset="1" stop-color="white"/>
</linearGradient>
<linearGradient id="paint12_linear_76_580" x1="57.2866" y1="151.908" x2="141.586" y2="151.908" gradientUnits="userSpaceOnUse">
<stop offset="0.01" stop-color="#A131A4"/>
<stop offset="1" stop-color="#FFC0B3"/>
</linearGradient>
<linearGradient id="paint13_linear_76_580" x1="26.6457" y1="123.389" x2="26.6457" y2="90.3994" gradientUnits="userSpaceOnUse">
<stop stop-color="#4FBBFF"/>
<stop offset="0.19" stop-color="#48B7FD"/>
<stop offset="0.47" stop-color="#35AAF7"/>
<stop offset="0.81" stop-color="#1696EE"/>
<stop offset="1" stop-color="#0088E8"/>
</linearGradient>
<radialGradient id="paint14_radial_76_580" cx="0" cy="0" r="1" gradientUnits="userSpaceOnUse" gradientTransform="translate(49.6391 54.0603) scale(164.552 151.21)">
<stop offset="0.01" stop-color="#B1FFFF"/>
<stop offset="0.29" stop-color="#B1FDFF"/>
<stop offset="0.44" stop-color="#AFF5FF"/>
<stop offset="0.55" stop-color="#ACE8FF"/>
<stop offset="0.62" stop-color="#A9DBFF"/>
<stop offset="0.65" stop-color="#A2D7FE"/>
<stop offset="0.7" stop-color="#8FCAFC"/>
<stop offset="0.76" stop-color="#6FB5F9"/>
<stop offset="0.82" stop-color="#4399F4"/>
<stop offset="0.89" stop-color="#0C75EE"/>
<stop offset="0.91" stop-color="#006DED"/>
</radialGradient>
<radialGradient id="paint15_radial_76_580" cx="0" cy="0" r="1" gradientUnits="userSpaceOnUse" gradientTransform="translate(76.4062 59.1935) rotate(-34.8) scale(45.2268 37.9147)">
<stop stop-color="#FF7700"/>
<stop offset="0.17" stop-color="#C55C00"/>
<stop offset="0.4" stop-color="#803C00"/>
<stop offset="0.6" stop-color="#492200"/>
<stop offset="0.78" stop-color="#210F00"/>
<stop offset="0.92" stop-color="#090400"/>
<stop offset="1"/>
</radialGradient>
<radialGradient id="paint16_radial_76_580" cx="0" cy="0" r="1" gradientUnits="userSpaceOnUse" gradientTransform="translate(129.768 15.2687) scale(51.401 51.401)">
<stop stop-color="#0088E8"/>
<stop offset="0.14" stop-color="#1C93ED"/>
<stop offset="0.4" stop-color="#4BA6F4"/>
<stop offset="0.64" stop-color="#6EB4FA"/>
<stop offset="0.83" stop-color="#83BCFE"/>
<stop offset="0.96" stop-color="#8BBFFF"/>
</radialGradient>
<radialGradient id="paint17_radial_76_580" cx="0" cy="0" r="1" gradientUnits="userSpaceOnUse" gradientTransform="translate(39.6296 31.6068) scale(116.469 116.469)">
<stop stop-color="#FFFFD9"/>
<stop offset="1"/>
</radialGradient>
</defs>
</svg>
