<svg width="79" height="49" viewBox="0 0 79 49" fill="none" xmlns="http://www.w3.org/2000/svg">
<circle cx="37.7258" cy="24" r="24" fill="#D9D9D9"/>
<path d="M74.8224 20.3329C75.1648 22.0207 74.5925 23.872 73.1364 25.8062C71.6807 27.7399 69.3765 29.706 66.3735 31.5842C60.3709 35.3384 51.6705 38.6827 41.6962 40.7061C31.722 42.7294 22.4061 43.0399 15.415 41.9215C11.9175 41.362 9.02931 40.4491 6.93523 39.2356C4.84048 38.0216 3.59199 36.5397 3.24961 34.8519C2.90723 33.1641 3.47956 31.3128 4.93568 29.3786C6.39133 27.4449 8.69554 25.4788 11.6985 23.6006C17.7011 19.8464 26.4016 16.5021 36.3758 14.4788C46.3501 12.4554 55.666 12.145 62.657 13.2634C66.1545 13.8229 69.0427 14.7357 71.1368 15.9492C73.2316 17.1632 74.4801 18.6451 74.8224 20.3329Z" stroke="#D9D9D9"/>
</svg>
