<svg id="eals0mYodL11" xmlns="http://www.w3.org/2000/svg" xmlns:xlink="http://www.w3.org/1999/xlink" viewBox="0 0 1240 490" shape-rendering="geometricPrecision" text-rendering="geometricPrecision">
<path d="" fill="none" stroke="#3f5787" stroke-width="0.6"/>
<path d="M537.0715,102.63372c92.90813-6.19387,182.51603-1.83606,275.4094-1.83606c69.48425,0,149.14349-16.04493,214.81933,12.85244c48.57326,21.37223,131.7108,87.99492,113.83589,150.55714-26.73728,93.5805-143.3835,128.29095-229.50783,134.03258-54.5703,3.63802-107.25938-.65467-161.57352-3.67212-156.7786-8.70992-275.12248-9.98676-424.13048-67.93432-20.64764-8.02964-44.75133-11.39046-64.26219-22.03275-35.71892-19.48304-82.76478-35.02715-111.99982-64.26219C81.73559,172.41175,156.06376,99.433,219.43266,67.74855c47.12488-23.56244,115.298-32.49943,167.0817-23.86881c44.15992,7.35999,105.16645,28.43823,148.72108,11.01638" transform="translate(.000001 0)" fill="none" stroke="#3f5787" stroke-width="2.48"/></svg>
