<svg width="64" height="64" viewBox="0 0 64 64" fill="none" xmlns="http://www.w3.org/2000/svg">
<path d="M59.3137 43.3137C62.3143 36.0697 62.3143 27.9303 59.3137 20.6863C56.3131 13.4422 50.5578 7.68687 43.3137 4.68629C36.0697 1.68571 27.9303 1.68571 20.6863 4.68629C13.4422 7.68687 7.68688 13.4422 4.68629 20.6863C1.68571 27.9303 1.68571 36.0697 4.68629 43.3137C7.68687 50.5578 13.4422 56.3131 20.6863 59.3137C27.9303 62.3143 36.0697 62.3143 43.3137 59.3137C50.5578 56.3131 56.3131 50.5578 59.3137 43.3137Z" fill="#75FF0A"/>
<path d="M28 42L20 32L28 22" stroke="black" stroke-width="1.6"/>
<path d="M44 32L28 32" stroke="black" stroke-width="1.6"/>
</svg>
