<svg width="64" height="64" viewBox="0 0 64 64" fill="none" xmlns="http://www.w3.org/2000/svg">
<path d="M4.68629 43.3137C1.68571 36.0697 1.68571 27.9303 4.68629 20.6863C7.68687 13.4422 13.4422 7.68687 20.6863 4.68629C27.9303 1.68571 36.0697 1.68571 43.3137 4.68629C50.5578 7.68687 56.3131 13.4422 59.3137 20.6863C62.3143 27.9303 62.3143 36.0697 59.3137 43.3137C56.3131 50.5578 50.5578 56.3131 43.3137 59.3137C36.0697 62.3143 27.9303 62.3143 20.6863 59.3137C13.4422 56.3131 7.68687 50.5578 4.68629 43.3137Z" fill="#6D19F7"/>
<path d="M36 42L44 32L36 22" stroke="white" stroke-width="1.6"/>
<path d="M20 32L36 32" stroke="white" stroke-width="1.6"/>
</svg>
