<svg width="40" height="40" viewBox="0 0 40 40" fill="none" xmlns="http://www.w3.org/2000/svg">
<g clip-path="url(#clip0_56_108)">
<path d="M0 20.0025C5.30456 20.0018 10.3916 17.8941 14.1423 14.143C17.8929 10.3919 20 5.30456 20 0C20 5.30456 22.1071 10.3919 25.8577 14.143C29.6084 17.8941 34.6954 20.0018 40 20.0025C37.3737 20.0022 34.773 20.5192 32.3465 21.524C29.92 22.5288 27.7152 24.0018 25.858 25.8588C24.0008 27.7157 22.5276 29.9203 21.5225 32.3467C20.5173 34.7731 20 37.3737 20 40C20 37.3737 19.4827 34.7731 18.4775 32.3467C17.4724 29.9203 15.9992 27.7157 14.142 25.8588C12.2848 24.0018 10.08 22.5288 7.65348 21.524C5.22699 20.5192 2.62632 20.0022 0 20.0025Z" fill="white"/>
</g>
<defs>
<clipPath id="clip0_56_108">
<rect width="40" height="40" fill="white" transform="matrix(-1 0 0 -1 40 40)"/>
</clipPath>
</defs>
</svg>
